<svg width="222" height="35" viewBox="0 0 222 35" fill="none" xmlns="http://www.w3.org/2000/svg">
<g clip-path="url(#clip0_1_996)">
<path d="M59.1416 15.2015H54.1165L53.1372 18.576H49.1561L54.3186 3.2146H59.0987L64.262 18.576H60.1103L59.1416 15.2015ZM54.8726 12.3905H58.3749L56.6719 6.47189H56.5861L54.8726 12.3905Z" fill="white"/>
<path d="M69.3513 2.448H65.5829V18.5761H69.3513V2.448Z" fill="white"/>
<path d="M78.753 6.56812C80.2504 6.56812 81.4143 7.1002 82.2449 8.16438C83.0824 9.22943 83.5007 10.7233 83.5007 12.646C83.5007 14.5696 83.0859 16.0634 82.2554 17.1285C81.4318 18.1997 80.2784 18.7353 78.795 18.7353C77.0141 18.7353 75.8038 18.008 75.1649 16.5535H75.0905V22.1851H71.3221V6.72739H75.0695V8.80324H75.1439C75.4423 8.10049 75.907 7.5544 76.5389 7.16409C77.1699 6.76677 77.9085 6.56812 78.753 6.56812ZM77.358 15.7659C78.0538 15.7659 78.6077 15.485 79.0191 14.9249C79.4304 14.3569 79.636 13.5973 79.636 12.646C79.636 11.7026 79.4304 10.95 79.0191 10.3899C78.5999 9.82191 78.0468 9.53749 77.358 9.53749C76.6702 9.53749 76.1162 9.82191 75.6979 10.3899C75.2857 10.957 75.08 11.7131 75.08 12.6574C75.08 13.6078 75.2857 14.3639 75.6979 14.9249C76.1092 15.485 76.6632 15.7659 77.358 15.7659Z" fill="white"/>
<path d="M85.0878 2.448H88.7818V8.95208H88.8562C89.495 7.33394 90.7683 6.5253 92.6779 6.5253C93.9976 6.5253 95.0338 6.91912 95.7864 7.70675C96.5391 8.50138 96.9145 9.59794 96.9145 10.9964V18.5761H93.1356V11.8051C93.1356 11.1242 92.951 10.5851 92.5816 10.1869C92.2062 9.7966 91.6951 9.60144 91.0493 9.60144C90.4034 9.60144 89.8783 9.81498 89.4731 10.2403C89.0618 10.6735 88.8562 11.2275 88.8562 11.9013V18.5761H85.0878V2.448Z" fill="white"/>
<path d="M103.623 16.1172C104.248 16.1172 104.773 15.95 105.198 15.6166C105.646 15.2761 105.87 14.8394 105.87 14.3073V13.4873L103.687 13.637C102.58 13.7149 102.026 14.1332 102.026 14.8928C102.026 15.2691 102.172 15.5676 102.463 15.7872C102.747 16.0069 103.134 16.1172 103.623 16.1172ZM102.293 18.7356C101.164 18.7356 100.22 18.4022 99.4609 17.7353C98.6802 17.0614 98.2899 16.1985 98.2899 15.1484C98.2899 12.9272 99.8897 11.7169 103.091 11.5183L105.87 11.3476V10.6667C105.87 10.1915 105.709 9.82223 105.39 9.55968C105.078 9.30414 104.652 9.17637 104.113 9.17637C103.609 9.17637 103.19 9.29714 102.856 9.5378C102.537 9.77234 102.349 10.0778 102.293 10.4541H98.8964C98.9463 9.25426 99.4574 8.29247 100.43 7.56873C101.409 6.83798 102.697 6.47217 104.293 6.47217C105.87 6.47217 107.139 6.83798 108.105 7.56873C109.07 8.30647 109.553 9.27176 109.553 10.4646V18.5763H105.891V16.8733H105.816C105.504 17.4552 105.018 17.9129 104.357 18.2464C103.719 18.5728 103.031 18.7356 102.293 18.7356Z" fill="white"/>
<path d="M115.847 6.72828H119.509V9.00629H119.583C119.817 8.24666 120.24 7.64368 120.85 7.19648C121.461 6.74929 122.167 6.52612 122.969 6.52612C123.849 6.52612 124.576 6.74228 125.151 7.17548C125.726 7.61568 126.098 8.23616 126.269 9.03867H126.343C126.578 8.27204 127.025 7.66119 127.685 7.20699C128.352 6.75279 129.125 6.52612 130.006 6.52612C131.163 6.52612 132.099 6.89543 132.816 7.63318C133.532 8.37881 133.891 9.35109 133.891 10.55V18.5769H130.122V11.5083C130.122 10.2306 129.555 9.59176 128.419 9.59176C127.887 9.59176 127.464 9.76941 127.153 10.1238C126.833 10.4792 126.673 10.9544 126.673 11.5503V18.5769H123.075V11.4549C123.075 10.859 122.926 10.3978 122.628 10.0713C122.337 9.75191 121.918 9.59176 121.371 9.59176C120.846 9.59176 120.421 9.77291 120.095 10.1352C119.775 10.4967 119.615 10.9762 119.615 11.5722V18.5769H115.847V6.72828Z" fill="white"/>
<path d="M140.598 16.1174C141.223 16.1174 141.748 15.9502 142.174 15.6168C142.621 15.2764 142.844 14.8397 142.844 14.3076V13.4876L140.662 13.6372C139.555 13.7151 139.001 14.1334 139.001 14.8931C139.001 15.2694 139.147 15.5678 139.437 15.7875C139.722 16.0071 140.108 16.1174 140.598 16.1174ZM139.267 18.7358C138.139 18.7358 137.195 18.4024 136.435 17.7355C135.655 17.0617 135.265 16.1988 135.265 15.1486C135.265 12.9275 136.865 11.7172 140.066 11.5185L142.844 11.3478V10.667C142.844 10.1918 142.685 9.82247 142.365 9.55993C142.053 9.30438 141.627 9.17661 141.088 9.17661C140.584 9.17661 140.165 9.29738 139.831 9.53805C139.512 9.77259 139.324 10.078 139.267 10.4543H135.871C135.921 9.2545 136.432 8.29272 137.404 7.56897C138.384 6.83822 139.672 6.47241 141.269 6.47241C142.844 6.47241 144.115 6.83822 145.08 7.56897C146.045 8.30672 146.528 9.272 146.528 10.4648V18.5766H142.865V16.8735H142.791C142.478 17.4555 141.993 17.9132 141.333 18.2466C140.694 18.5731 140.005 18.7358 139.267 18.7358Z" fill="white"/>
<path d="M148.413 6.72739H152.075V8.95201H152.15C152.582 7.36275 153.516 6.56812 154.949 6.56812C155.29 6.56812 155.609 6.61712 155.908 6.71689V9.95318C155.581 9.81141 155.177 9.74052 154.694 9.74052C153.885 9.74052 153.264 9.96018 152.831 10.4004C152.398 10.8476 152.181 11.4864 152.181 12.3161V18.576H148.413V6.72739Z" fill="white"/>
<path d="M164.489 6.72746H168.705L164.447 11.8051L168.95 18.5761H164.606L161.658 14.0621L160.934 14.9031V18.5761H157.165V2.448H160.934V11.2625H161.009L164.489 6.72746Z" fill="white"/>
<path d="M174.678 9.15537C174.075 9.15537 173.567 9.35752 173.155 9.76184C172.744 10.1662 172.513 10.6842 172.464 11.3161H176.871C176.835 10.6632 176.619 10.1382 176.222 9.74084C175.816 9.35052 175.302 9.15537 174.678 9.15537ZM180.363 14.8499C180.178 16.0638 179.582 17.0291 178.574 17.7458C177.559 18.4695 176.286 18.8319 174.752 18.8319C172.879 18.8319 171.409 18.2893 170.345 17.2032C169.28 16.1172 168.748 14.6198 168.748 12.7102C168.748 10.8015 169.277 9.28226 170.335 8.1542C171.392 7.03314 172.822 6.47217 174.625 6.47217C176.391 6.47217 177.804 7.00776 178.861 8.07981C179.912 9.15887 180.437 10.5994 180.437 12.4022V13.4768H172.421V13.7114C172.421 14.4351 172.641 15.0206 173.081 15.4678C173.521 15.922 174.096 16.1495 174.806 16.1495C175.934 16.1495 176.651 15.7163 176.956 14.8499H180.363Z" fill="white"/>
<path d="M186.665 4.10913V6.72757H188.805V9.51666H186.665V14.5732C186.665 15.4038 187.123 15.8186 188.039 15.8186C188.301 15.8186 188.557 15.8011 188.805 15.7661V18.4484C188.372 18.5482 187.819 18.5972 187.144 18.5972C185.626 18.5972 184.536 18.3416 183.876 17.8305C183.223 17.3273 182.897 16.4933 182.897 15.3294V9.51666H181.31V6.72757H182.897V4.10913H186.665Z" fill="white"/>
<path d="M190.457 6.72788H194.235V18.5765H190.457V6.72788ZM192.341 5.74859C191.801 5.74859 191.347 5.57093 190.978 5.2165C190.595 4.86119 190.403 4.41749 190.403 3.8854C190.403 3.36031 190.595 2.91662 190.978 2.55518C191.347 2.19987 191.801 2.02222 192.341 2.02222C192.88 2.02222 193.338 2.19987 193.714 2.55518C194.097 2.91662 194.289 3.36031 194.289 3.8854C194.289 4.41749 194.097 4.86119 193.714 5.2165C193.345 5.57093 192.887 5.74859 192.341 5.74859Z" fill="white"/>
<path d="M196.153 6.72828H199.815V8.9529H199.889C200.543 7.33476 201.802 6.52612 203.669 6.52612C204.989 6.52612 206.025 6.91994 206.777 7.70757C207.522 8.4952 207.895 9.58826 207.895 10.9867V18.5769H204.116V11.7954C204.116 11.1075 203.939 10.571 203.583 10.1877C203.222 9.79742 202.718 9.60226 202.072 9.60226C201.433 9.60226 200.915 9.8158 200.518 10.2411C200.12 10.6673 199.922 11.2169 199.922 11.8916V18.5769H196.153V6.72828Z" fill="white"/>
<path d="M215.497 15.6591C216.207 15.6591 216.764 15.3966 217.168 14.8715C217.58 14.3394 217.786 13.5973 217.786 12.646C217.786 11.6956 217.58 10.9395 217.168 10.3785C216.757 9.81841 216.199 9.53748 215.497 9.53748C214.795 9.53748 214.241 9.81491 213.836 10.368C213.425 10.929 213.218 11.6851 213.218 12.6355C213.218 13.5938 213.421 14.3394 213.826 14.8715C214.23 15.3966 214.788 15.6591 215.497 15.6591ZM215.433 22.9727C213.758 22.9727 212.399 22.6463 211.356 21.9934C210.298 21.3336 209.745 20.4532 209.695 19.3531H213.357C213.435 19.6866 213.676 19.9561 214.081 20.1618C214.479 20.3613 214.95 20.4602 215.497 20.4602C216.185 20.4602 216.736 20.2974 217.147 19.971C217.558 19.6367 217.765 19.186 217.765 18.6189V16.3724H217.69C217.449 17.0042 217.005 17.5083 216.359 17.8837C215.706 18.2671 214.947 18.4587 214.081 18.4587C212.655 18.4587 211.515 17.9441 210.664 16.915C209.798 15.8648 209.365 14.4313 209.365 12.6145C209.365 10.7338 209.79 9.25744 210.643 8.18626C211.494 7.1072 212.662 6.56812 214.145 6.56812C214.983 6.56812 215.724 6.77377 216.37 7.18509C216.995 7.58941 217.445 8.12937 217.722 8.80324H217.786V6.72739H221.544V18.3415C221.544 19.7469 220.986 20.868 219.872 21.7055C218.758 22.55 217.278 22.9727 215.433 22.9727Z" fill="white"/>
<path d="M54.2238 28.4654H50.8894L50.0091 30.8974H49.2118L52.182 22.959H52.9303L55.8962 30.8974H55.1042L54.2238 28.4654ZM51.1152 27.8169H53.998L52.5732 23.8884H52.54L51.1152 27.8169Z" fill="white"/>
<path d="M61.4135 30.8974H60.4509L57.5462 27.998H57.513V30.8974H56.7919V24.9727H57.513V27.6401H57.5462L60.3791 24.9727H61.3033L58.2831 27.7889L61.4135 30.8974Z" fill="white"/>
<path d="M66.4745 25.5826H64.4503V30.8974H63.73V25.5826H61.705V24.9727H66.4745V25.5826Z" fill="white"/>
<path d="M67.8624 32.9601C67.7372 32.9601 67.6165 32.9461 67.4992 32.9164V32.295C67.6086 32.3204 67.7285 32.3335 67.8562 32.3335C68.124 32.3335 68.3428 32.2547 68.5109 32.0963C68.6763 31.9423 68.825 31.6789 68.9572 31.3043L69.0893 30.9359L66.8612 24.9727H67.6418L69.4578 30.1605H69.4744L71.2947 24.9727H72.0648L69.7544 31.1836C69.498 31.8802 69.2372 32.3501 68.9729 32.5917C68.713 32.8376 68.3428 32.9601 67.8624 32.9601Z" fill="white"/>
<path d="M74.7111 30.3242C75.2432 30.3242 75.6869 30.1649 76.0431 29.8455C76.4019 29.5304 76.5822 29.1375 76.5822 28.6684V28.0138L74.8485 28.1346C73.8325 28.2011 73.3249 28.573 73.3249 29.2512C73.3249 29.5707 73.4536 29.8288 73.71 30.0275C73.9664 30.2253 74.3007 30.3242 74.7111 30.3242ZM74.5685 30.9622C73.9778 30.9622 73.4991 30.8046 73.1324 30.4896C72.7657 30.1702 72.5819 29.7562 72.5819 29.246C72.5819 28.2151 73.3083 27.6489 74.761 27.5465L76.5822 27.4248V26.919C76.5822 26.4858 76.4518 26.1506 76.191 25.9126C75.9276 25.6737 75.5565 25.5546 75.0796 25.5546C74.6656 25.5546 74.3226 25.6535 74.0513 25.8513C73.78 26.0535 73.6111 26.33 73.5446 26.6827H72.8462C72.876 26.1611 73.1009 25.7358 73.5227 25.4059C73.941 25.0724 74.4617 24.9053 75.0857 24.9053C75.7639 24.9053 76.3048 25.0812 76.7082 25.4339C77.1082 25.7857 77.3077 26.2609 77.3077 26.8586V30.8965H76.6146V29.7632H76.598C76.4369 30.1229 76.1726 30.4126 75.8059 30.6322C75.4358 30.8528 75.0227 30.9622 74.5685 30.9622Z" fill="white"/>
<path d="M80.0032 28.3498C79.9367 29.2014 79.801 29.8245 79.5963 30.2209C79.3425 30.7049 78.9522 30.9473 78.4244 30.9473C78.3028 30.9473 78.1925 30.9289 78.0936 30.8921V30.2262C78.182 30.2559 78.2809 30.2699 78.3912 30.2699C78.6809 30.2699 78.9005 30.0905 79.051 29.7308C79.1797 29.4228 79.2672 28.9537 79.3153 28.3227C79.3994 27.4423 79.4764 26.3256 79.5464 24.9727H83.3366V30.8974H82.6164V25.5826H80.201C80.1424 26.7124 80.0767 27.6348 80.0032 28.3498Z" fill="white"/>
<path d="M85.4721 27.6016V30.2865H86.7542C87.1874 30.2865 87.5339 30.164 87.7938 29.9181C88.0511 29.6757 88.1789 29.3519 88.1789 28.9441C88.1789 28.5336 88.0494 28.2072 87.7886 27.9648C87.5322 27.7232 87.1874 27.6016 86.7542 27.6016H85.4721ZM84.7518 24.9727H85.4721V26.9855H86.7542C87.407 26.9855 87.9277 27.1623 88.3163 27.5141C88.7092 27.8694 88.9053 28.3463 88.9053 28.9441C88.9053 29.5383 88.7092 30.0135 88.3163 30.3697C87.9277 30.7215 87.407 30.8974 86.7542 30.8974H84.7518V24.9727Z" fill="white"/>
<path d="M94.0439 28.1249H90.721V30.8974H89.9999V24.9727H90.721V27.5141H94.0439V24.9727H94.7642V30.8974H94.0439V28.1249Z" fill="white"/>
<path d="M101.217 24.9727H101.938V30.8974H101.217V24.9727ZM96.9037 27.6016V30.2865H98.1858C98.619 30.2865 98.9656 30.164 99.2255 29.9181C99.4828 29.6757 99.6105 29.3519 99.6105 28.9441C99.6105 28.5336 99.481 28.2072 99.2202 27.9648C98.9638 27.7232 98.619 27.6016 98.1858 27.6016H96.9037ZM96.1835 24.9727H96.9037V26.9855H98.1858C98.8387 26.9855 99.3594 27.1623 99.7488 27.5141C100.141 27.8694 100.337 28.3463 100.337 28.9441C100.337 29.5383 100.141 30.0135 99.7488 30.3697C99.3594 30.7215 98.8387 30.8974 98.1858 30.8974H96.1835V24.9727Z" fill="white"/>
<path d="M104.733 22.4795C104.733 22.8094 104.832 23.0772 105.031 23.2829C105.232 23.4912 105.5 23.5962 105.833 23.5962C106.167 23.5962 106.433 23.4912 106.631 23.2829C106.829 23.0772 106.928 22.8094 106.928 22.4795H107.484C107.484 22.9521 107.333 23.3319 107.033 23.6181C106.728 23.9077 106.328 24.053 105.833 24.053C105.334 24.053 104.935 23.9077 104.634 23.6181C104.33 23.3319 104.177 22.9521 104.177 22.4795H104.733ZM103.357 30.8966V24.9719H104.078V29.7633H104.112L107.478 24.9719H108.199V30.8966H107.478V26.1052H107.44L104.078 30.8966H103.357Z" fill="white"/>
<path d="M112.111 30.8974V24.9727H112.975L115.319 29.9347H115.351L117.689 24.9727H118.526V30.8974H117.8V26.2924H117.766L115.599 30.7819H115.032L112.865 26.2924H112.831V30.8974H112.111Z" fill="white"/>
<path d="M121.832 30.3242C122.363 30.3242 122.808 30.1649 123.163 29.8455C123.523 29.5304 123.702 29.1375 123.702 28.6684V28.0138L121.97 28.1346C120.954 28.2011 120.446 28.573 120.446 29.2512C120.446 29.5707 120.574 29.8288 120.831 30.0275C121.087 30.2253 121.421 30.3242 121.832 30.3242ZM121.689 30.9622C121.099 30.9622 120.62 30.8046 120.253 30.4896C119.886 30.1702 119.703 29.7562 119.703 29.246C119.703 28.2151 120.429 27.6489 121.881 27.5465L123.702 27.4248V26.919C123.702 26.4858 123.572 26.1506 123.312 25.9126C123.048 25.6737 122.678 25.5546 122.201 25.5546C121.786 25.5546 121.444 25.6535 121.171 25.8513C120.9 26.0535 120.731 26.33 120.666 26.6827H119.967C119.996 26.1611 120.222 25.7358 120.644 25.4059C121.062 25.0724 121.583 24.9053 122.206 24.9053C122.885 24.9053 123.426 25.0812 123.829 25.4339C124.229 25.7857 124.429 26.2609 124.429 26.8586V30.8965H123.736V29.7632H123.719C123.558 30.1229 123.294 30.4126 122.927 30.6322C122.556 30.8528 122.144 30.9622 121.689 30.9622Z" fill="white"/>
<path d="M128.533 24.9053C129.281 24.9053 129.889 25.1844 130.359 25.7419C130.825 26.2994 131.058 27.0293 131.058 27.9315C131.058 28.8338 130.825 29.5654 130.359 30.1264C129.897 30.6839 129.292 30.9622 128.543 30.9622C128.078 30.9622 127.663 30.8431 127.3 30.6051C126.948 30.3776 126.688 30.0678 126.519 29.6748H126.503V32.8385H125.776V24.9718H126.464V26.1979H126.481C126.638 25.8172 126.903 25.5065 127.273 25.2685C127.651 25.026 128.071 24.9053 128.533 24.9053ZM128.406 30.3075C128.978 30.3075 129.44 30.0914 129.792 29.6591C130.141 29.2224 130.315 28.6483 130.315 27.9368C130.315 27.2253 130.141 26.6494 129.792 26.2092C129.44 25.7725 128.978 25.5546 128.406 25.5546C127.842 25.5546 127.383 25.7743 127.03 26.2145C126.675 26.6582 126.497 27.2305 126.497 27.9315C126.497 28.6351 126.675 29.2075 127.03 29.6477C127.383 30.0879 127.842 30.3075 128.406 30.3075Z" fill="white"/>
<path d="M136.801 30.8974H135.839L132.934 27.998H132.901V30.8974H132.18V24.9727H132.901V27.6401H132.934L135.767 24.9727H136.691L133.671 27.7889L136.801 30.8974Z" fill="white"/>
<path d="M139.839 25.5494C139.307 25.5494 138.871 25.7305 138.529 26.0937C138.185 26.4534 137.996 26.9277 137.962 27.5185H141.648C141.641 26.9277 141.473 26.4534 141.143 26.0937C140.809 25.7305 140.374 25.5494 139.839 25.5494ZM142.331 29.2189C142.243 29.7282 141.975 30.1448 141.528 30.4677C141.077 30.7976 140.532 30.9622 139.894 30.9622C139.072 30.9622 138.419 30.6926 137.935 30.1535C137.451 29.6109 137.209 28.8758 137.209 27.9473C137.209 27.0275 137.45 26.2898 137.93 25.7358C138.414 25.1827 139.054 24.9053 139.85 24.9053C140.627 24.9053 141.249 25.1661 141.715 25.6868C142.177 26.211 142.408 26.9137 142.408 27.7933V28.1127H137.962V28.1512C137.962 28.8189 138.141 29.3466 138.496 29.7361C138.849 30.1246 139.32 30.3189 139.91 30.3189C140.347 30.3189 140.719 30.2165 141.027 30.0109C141.328 29.8131 141.522 29.5488 141.61 29.2189H142.331Z" fill="white"/>
<path d="M147.7 25.5826H145.676V30.8974H144.955V25.5826H142.931V24.9727H147.7V25.5826Z" fill="white"/>
<path d="M148.63 30.8974V24.9727H149.35V29.7641H149.383L152.75 24.9727H153.471V30.8974H152.75V26.106H152.711L149.35 30.8974H148.63Z" fill="white"/>
<path d="M158.929 28.1249H155.606V30.8974H154.885V24.9727H155.606V27.5141H158.929V24.9727H159.649V30.8974H158.929V28.1249Z" fill="white"/>
<path d="M161.789 25.5826V30.8974H161.068V24.9727H164.826V25.5826H161.789Z" fill="white"/>
<path d="M168.387 30.8974V24.9727H169.107V29.7641H169.14L172.507 24.9727H173.228V30.8974H172.507V26.106H172.468L169.107 30.8974H168.387Z" fill="white"/>
<path d="M181.128 25.5826H177.861V30.8974H177.14V24.9727H181.849V30.8974H181.128V25.5826Z" fill="white"/>
<path d="M186.025 24.9053C186.773 24.9053 187.382 25.1844 187.852 25.7419C188.317 26.2994 188.55 27.0293 188.55 27.9315C188.55 28.8338 188.317 29.5654 187.852 30.1264C187.389 30.6839 186.784 30.9622 186.036 30.9622C185.57 30.9622 185.155 30.8431 184.792 30.6051C184.44 30.3776 184.18 30.0678 184.011 29.6748H183.995V32.8385H183.268V24.9718H183.956V26.1979H183.973C184.13 25.8172 184.395 25.5065 184.765 25.2685C185.143 25.026 185.562 24.9053 186.025 24.9053ZM185.898 30.3075C186.471 30.3075 186.933 30.0914 187.284 29.6591C187.633 29.2224 187.807 28.6483 187.807 27.9368C187.807 27.2253 187.633 26.6494 187.284 26.2092C186.933 25.7725 186.471 25.5546 185.898 25.5546C185.334 25.5546 184.875 25.7743 184.523 26.2145C184.167 26.6582 183.99 27.2305 183.99 27.9315C183.99 28.6351 184.167 29.2075 184.523 29.6477C184.875 30.0879 185.334 30.3075 185.898 30.3075Z" fill="white"/>
<path d="M192.065 30.9622C191.251 30.9622 190.6 30.6874 190.112 30.1369C189.621 29.5908 189.375 28.8557 189.375 27.9315C189.375 27.0109 189.621 26.2749 190.112 25.7253C190.6 25.1783 191.251 24.9053 192.065 24.9053C192.883 24.9053 193.536 25.1783 194.024 25.7253C194.515 26.2749 194.761 27.0109 194.761 27.9315C194.761 28.8522 194.515 29.5873 194.024 30.1369C193.536 30.6874 192.883 30.9622 192.065 30.9622ZM192.065 30.3075C192.671 30.3075 193.147 30.0966 193.495 29.6748C193.844 29.2495 194.018 28.6684 194.018 27.9315C194.018 27.1938 193.844 26.6127 193.495 26.1874C193.147 25.7655 192.671 25.5546 192.065 25.5546C191.464 25.5546 190.989 25.7655 190.64 26.1874C190.292 26.6127 190.118 27.1938 190.118 27.9315C190.118 28.6684 190.292 29.2495 190.64 29.6748C190.989 30.0966 191.464 30.3075 192.065 30.3075Z" fill="white"/>
<path d="M199.933 25.5826H197.358C197.303 26.6319 197.235 27.5543 197.155 28.3498C197.077 29.2784 196.9 29.9129 196.621 30.2533V30.2865H199.933V25.5826ZM195.278 32.4657V30.2865H195.757C196.153 30.0301 196.393 29.3755 196.478 28.3227C196.587 26.9654 196.664 25.8487 196.709 24.9727H200.659V30.2865H201.616V32.4657H200.934V30.8974H195.961V32.4657H195.278Z" fill="white"/>
<path d="M204.4 30.3242C204.932 30.3242 205.375 30.1649 205.731 29.8455C206.09 29.5304 206.27 29.1375 206.27 28.6684V28.0138L204.537 28.1346C203.521 28.2011 203.013 28.573 203.013 29.2512C203.013 29.5707 203.142 29.8288 203.398 30.0275C203.655 30.2253 203.989 30.3242 204.4 30.3242ZM204.257 30.9622C203.666 30.9622 203.188 30.8046 202.821 30.4896C202.454 30.1702 202.27 29.7562 202.27 29.246C202.27 28.2151 202.997 27.6489 204.449 27.5465L206.27 27.4248V26.919C206.27 26.4858 206.14 26.1506 205.879 25.9126C205.615 25.6737 205.245 25.5546 204.768 25.5546C204.354 25.5546 204.011 25.6535 203.74 25.8513C203.468 26.0535 203.3 26.33 203.233 26.6827H202.535C202.564 26.1611 202.789 25.7358 203.211 25.4059C203.629 25.0724 204.15 24.9053 204.774 24.9053C205.452 24.9053 205.993 25.0812 206.397 25.4339C206.797 25.7857 206.996 26.2609 206.996 26.8586V30.8965H206.303V29.7632H206.286C206.125 30.1229 205.861 30.4126 205.494 30.6322C205.124 30.8528 204.711 30.9622 204.257 30.9622Z" fill="white"/>
<path d="M215.771 30.8974H214.813L212.156 27.998H212.123V30.8974H211.403V27.998H211.37L208.713 30.8974H207.777L210.643 27.8055L207.866 24.9727H208.784L211.37 27.6401H211.403V24.9727H212.123V27.6401H212.156L214.743 24.9727H215.655L212.888 27.7889L215.771 30.8974Z" fill="white"/>
<path d="M216.624 30.8974V24.9727H217.345V29.7641H217.378L220.745 24.9727H221.466V30.8974H220.745V26.106H220.706L217.345 30.8974H216.624Z" fill="white"/>
<path fill-rule="evenodd" clip-rule="evenodd" d="M28.1095 20.8509L28.1953 20.5077L30.6831 28.1427L30.3829 28.5717V28.5288L30.2971 28.7003C23.1339 38.2227 7.94965 36.3783 2.33061 26.6844C-3.63157 16.3899 2.4164 2.79274 14.0834 0.34782C15.2844 0.133354 16.5283 0.004673 17.7722 0.004673C23.3055 0.004673 29.139 2.4067 32.0986 7.25365L34.4149 0.94833H41.621L36.1735 16.0897L39.6908 25.8694C40.0768 26.8559 41.1491 27.4135 42.1357 27.1562L42.4359 27.0704L44.3661 33.5473L42.0499 34.1478C38.7471 34.9628 35.3585 33.2899 34.1146 30.1158C33.8144 29.5582 33.5141 28.9577 33.2996 28.3143L32.0128 24.9257L31.927 24.797V24.7542L29.0532 16.0468C27.4661 11.2427 24.5065 8.9265 22.1474 7.98284C20.8606 7.38233 19.4022 7.08208 17.858 7.08208C11.8958 7.08208 7.09178 11.8432 7.09178 17.6767C7.09178 23.5102 11.8958 28.2714 17.858 28.2714C22.6621 28.2714 26.7369 25.1402 28.1095 20.8509Z" fill="url(#paint0_linear_1_996)"/>
</g>
<defs>
<linearGradient id="paint0_linear_1_996" x1="0.0572649" y1="0.493659" x2="42.9507" y2="0.493659" gradientUnits="userSpaceOnUse">
<stop stop-color="#7A5FFF"/>
<stop offset="1" stop-color="#00E824"/>
</linearGradient>
<clipPath id="clip0_1_996">
<rect width="221.667" height="35" fill="white"/>
</clipPath>
</defs>
</svg>
