<svg width="24" height="40" viewBox="0 0 24 40" fill="none" xmlns="http://www.w3.org/2000/svg">
<path d="M16.1712 20.0206L1.35755 35C0.800457 35.5571 0.548243 36.1654 0.521908 37C0.495573 37.8346 0.747786 38.5546 1.35755 39.1644C1.91465 39.7215 2.62367 40 3.48464 40C4.3456 40 5.05463 39.7215 5.61173 39.1644L22.6284 22.1477C23.2362 21.5399 23.54 20.8309 23.54 20.0206C23.54 19.2102 23.2362 18.5012 22.6284 17.8935L5.61173 0.876778C5.05463 0.319683 4.35776 0.0279694 3.5211 0.00163269C2.68445 -0.024704 1.96326 0.267014 1.35755 0.876778C0.800457 1.43387 0.521908 2.1429 0.521908 3.00386C0.521908 3.86483 0.800457 4.57386 1.35755 5.13095L16.1712 20.0206Z" fill="white"/>
</svg>
