<svg width="24" height="40" viewBox="0 0 24 40" fill="none" xmlns="http://www.w3.org/2000/svg">
<path d="M7.86884 20.0206L22.6825 35C23.2396 35.5571 23.4918 36.1654 23.5181 37C23.5445 37.8346 23.2923 38.5546 22.6825 39.1644C22.1254 39.7215 21.4164 40 20.5554 40C19.6944 40 18.9854 39.7215 18.4283 39.1644L1.41161 22.1477C0.803869 21.5399 0.5 20.8309 0.5 20.0206C0.5 19.2102 0.803869 18.5012 1.41161 17.8935L18.4283 0.876778C18.9854 0.319683 19.6823 0.0279694 20.5189 0.00163269C21.3556 -0.024704 22.0768 0.267014 22.6825 0.876778C23.2396 1.43387 23.5181 2.1429 23.5181 3.00386C23.5181 3.86483 23.2396 4.57386 22.6825 5.13095L7.86884 20.0206Z" fill="white"/>
</svg>
