<svg width="33" height="32" viewBox="0 0 33 32" fill="none" xmlns="http://www.w3.org/2000/svg">
<g clip-path="url(#clip0_1_976)">
<path d="M24.4675 11.5026C24.4655 11.5006 24.4655 11.4986 24.4645 11.4966C24.4615 11.4926 24.4555 11.4906 24.4525 11.4856C24.1035 11.0946 23.5975 10.8496 23.0345 10.8486H12.4975C11.9345 10.8486 11.4285 11.0936 11.0815 11.4836L11.0795 11.4856C11.0755 11.4896 11.0705 11.4916 11.0675 11.4966C11.0655 11.4986 11.0655 11.5006 11.0645 11.5036C10.7705 11.8356 10.5915 12.2756 10.5915 12.7566V15.7206H8.3425C8.1875 15.7216 8.0625 15.8466 8.0625 16.0016C8.0625 16.1566 8.1875 16.2816 8.3425 16.2826H10.5915V17.8086H9.6075H9.6065C9.4515 17.8086 9.3255 17.9346 9.3255 18.0896C9.3255 18.2446 9.4515 18.3706 9.6065 18.3706H9.6075H10.5915V19.2466C10.5925 20.2996 11.4455 21.1526 12.4985 21.1536H23.0355C24.0885 21.1526 24.9415 20.2996 24.9425 19.2466V12.7576C24.9425 12.2766 24.7635 11.8366 24.4675 11.5026ZM23.0345 11.4096C23.3225 11.4096 23.5895 11.5016 23.8075 11.6566L23.8035 11.6536L18.4385 15.8176C18.2545 15.9616 18.0205 16.0476 17.7665 16.0476C17.5125 16.0476 17.2785 15.9606 17.0925 15.8156L17.0945 15.8176L11.7295 11.6536C11.9435 11.5016 12.2105 11.4096 12.4975 11.4096H23.0345ZM24.3795 19.2436C24.3785 19.9866 23.7765 20.5876 23.0345 20.5886H12.4975C11.7545 20.5876 11.1535 19.9856 11.1525 19.2436V18.3676H13.9075H13.9085C14.0635 18.3676 14.1895 18.2416 14.1895 18.0866C14.1895 17.9316 14.0635 17.8056 13.9085 17.8056H13.9075H11.1525V12.7546C11.1535 12.5006 11.2265 12.2636 11.3505 12.0626L11.3475 12.0686L16.7505 16.2616C17.0285 16.4786 17.3825 16.6096 17.7665 16.6096C18.1505 16.6096 18.5055 16.4786 18.7865 16.2586L18.7825 16.2616L24.1855 12.0686C24.3065 12.2646 24.3785 12.5006 24.3805 12.7546L24.3795 19.2436Z" fill="#21A038"/>
<circle cx="16.5" cy="16" r="15.75" stroke="#21A038" stroke-width="0.5"/>
</g>
<defs>
<clipPath id="clip0_1_976">
<rect width="32" height="32" fill="white" transform="translate(0.5)"/>
</clipPath>
</defs>
</svg>
