<svg width="78" height="40" viewBox="0 0 78 40" fill="none" xmlns="http://www.w3.org/2000/svg">
<path d="M56.1759 17.679C55.9342 17.3008 55.7806 16.8732 55.7261 16.4277C55.7026 16.262 55.6816 16.0953 55.6705 15.9282C55.6509 15.6354 55.7183 15.3519 55.7835 15.0697C55.9098 14.5216 55.9917 13.9721 55.8919 13.4083C55.7654 12.61 55.4165 11.8634 54.8851 11.2543C54.6369 10.9739 54.3344 10.7577 54.0311 10.5437C53.6877 10.3017 53.3639 10.0422 53.1587 9.66379C53.1442 9.63714 53.1215 9.61528 53.1047 9.5899C52.9144 9.30037 52.7318 9.00732 52.663 8.65997C52.6401 8.54532 52.6188 8.43038 52.592 8.31658C52.5166 7.99546 52.4624 7.66687 52.3567 7.35577C52.1338 6.70028 51.7194 6.16876 51.2073 5.71099C50.727 5.27395 50.1396 4.97173 49.5048 4.83508C49.326 4.79658 49.1478 4.7554 48.9702 4.71154C48.7054 4.65809 48.4525 4.55726 48.2236 4.41412C48.0685 4.30835 47.9159 4.19835 47.7568 4.09864C47.5095 3.93632 47.2985 3.72436 47.1372 3.47615C47.0133 3.29606 46.8921 3.11414 46.7694 2.93306C46.521 2.55906 46.2036 2.23612 45.8338 1.98156C45.1223 1.49883 44.3423 1.21565 43.4773 1.21636C43.1932 1.22976 42.9103 1.26191 42.6304 1.31254C42.4139 1.34145 42.1992 1.38277 41.9827 1.41408C41.6951 1.45455 41.416 1.38587 41.1358 1.33849C40.7314 1.28278 40.3454 1.13442 40.0076 0.904834C39.8838 0.816128 39.755 0.733205 39.6242 0.655077C39.4455 0.548321 39.2678 0.437475 39.0807 0.3475C38.5614 0.10818 37.9945 -0.0104228 37.4228 0.000718222C36.6969 -0.000409983 36.0102 0.154718 35.3878 0.543667C35.2283 0.643372 35.0727 0.749423 34.9125 0.848C34.7564 0.943898 34.5979 1.03458 34.4394 1.12596C34.2519 1.23328 34.0314 1.26685 33.8204 1.22017C33.5712 1.17151 33.321 1.12653 33.0745 1.06588C32.4926 0.909346 31.8817 0.894539 31.2929 1.02287C30.4672 1.21453 29.7298 1.57005 29.1523 2.20678C28.9786 2.39844 28.8302 2.61265 28.668 2.81503C28.5376 2.97749 28.4047 3.13783 28.2713 3.29776C28.1708 3.42158 28.0275 3.50337 27.8698 3.52692C27.6141 3.56768 27.3594 3.62056 27.1021 3.64454C26.3421 3.70701 25.6168 3.99005 25.0152 4.45882C24.3157 5.00233 23.8142 5.67982 23.5777 6.54219C23.532 6.70874 23.48 6.87346 23.426 7.03761C23.2275 7.67646 22.7889 8.21349 22.2026 8.53517C21.9852 8.65701 21.7675 8.77801 21.5531 8.90479C21.292 9.054 21.0545 9.24114 20.8484 9.46015C19.9518 10.4418 19.5353 11.5799 19.7198 12.9174C19.7621 13.2238 19.7979 13.5362 19.7305 13.8438C19.6786 14.0814 19.602 14.3135 19.542 14.5496C19.4713 14.8157 19.3485 15.0651 19.1805 15.2832C19.0222 15.4948 18.8586 15.7027 18.6991 15.9135C18.4366 16.2524 18.244 16.6399 18.1321 17.0537C18.0642 17.3034 18.0144 17.5578 17.9832 17.8149C17.9018 18.5624 17.9887 19.287 18.3339 19.9664C18.4444 20.184 18.5618 20.398 18.6755 20.6137C18.7825 20.8167 18.8955 21.0226 18.9215 21.2507C18.9543 21.5424 19.0663 21.8205 19.0506 22.1206C19.044 22.2508 19.0818 22.3826 19.0883 22.5143C19.1032 22.8129 19.0274 23.0992 18.9562 23.3853C18.8543 23.795 18.7479 24.2037 18.7418 24.6327C18.7679 24.8596 18.7803 25.089 18.8226 25.3128C18.9516 26.0641 19.2853 26.765 19.7868 27.3388C20.0315 27.6147 20.3269 27.8321 20.6186 28.0534C20.9309 28.2814 21.1965 28.5677 21.4005 28.8962C21.6135 29.2374 21.7527 29.6193 21.8094 30.0175C21.8618 30.405 21.8992 30.7989 22.0419 31.1657C22.5422 32.4511 23.4241 33.3365 24.7685 33.7267C25.0417 33.8061 25.3174 33.8776 25.5866 33.9687C25.9581 34.0901 26.2748 34.3382 26.4818 34.6696C26.6067 34.8671 26.7295 35.0667 26.8403 35.2724C27.1961 35.9418 27.7426 36.4904 28.4105 36.8489C28.9714 37.1553 29.5633 37.3632 30.2087 37.367C30.5077 37.3687 30.8072 37.3347 31.1062 37.3123C31.3898 37.2909 31.6731 37.2438 31.9569 37.2992C32.1064 37.3284 32.2543 37.3652 32.4018 37.4025C32.7731 37.4969 33.1337 37.6152 33.4402 37.8588C33.5795 37.9695 33.7263 38.0706 33.8655 38.1814C34.4282 38.6336 35.1089 38.9141 35.8268 38.9895C36.6279 39.0793 37.3998 38.9919 38.1213 38.6066C38.341 38.4896 38.5583 38.367 38.7774 38.2495C38.9845 38.129 39.2105 38.0449 39.4461 38.0011C39.7022 37.9624 39.9588 37.9279 40.2162 37.8977C40.3067 37.8842 40.3987 37.8839 40.4894 37.897C40.7888 37.9517 41.0896 38.0039 41.3839 38.0803C41.9576 38.2291 42.5335 38.2872 43.1195 38.1721C44.1777 37.9641 45.0649 37.4752 45.707 36.587C45.7368 36.546 45.7701 36.5072 45.8007 36.4664C46.0482 36.1175 46.3629 35.8218 46.7266 35.5966C47.1377 35.3494 47.5562 35.1538 48.0373 35.0947C48.33 35.0597 48.6201 35.0064 48.9061 34.935C50.0336 34.6499 51.2687 33.5674 51.6239 32.3086C51.664 32.1668 51.7063 32.0255 51.7422 31.8827C51.8507 31.4515 51.9979 31.0443 52.2685 30.6772C52.5435 30.3039 52.834 29.9602 53.2422 29.7291C53.3658 29.6588 53.4854 29.5813 53.6057 29.5053C53.8545 29.3558 54.0858 29.1791 54.2951 28.9781C54.7837 28.4841 55.1429 27.8771 55.3408 27.2109C55.4879 26.7706 55.5407 26.3043 55.4959 25.8421C55.4621 25.5493 55.421 25.2574 55.3867 24.9648C55.3475 24.7078 55.3537 24.446 55.4045 24.1911C55.4491 23.9983 55.4982 23.8067 55.54 23.6136C55.584 23.4041 55.666 23.2044 55.782 23.0244C55.9091 22.8283 56.0408 22.635 56.1769 22.4447C56.4786 22.0399 56.6977 21.5799 56.8218 21.0905C56.8959 20.7789 56.936 20.4599 56.9415 20.1395C56.9523 19.5102 56.8513 18.9028 56.5577 18.3391C56.4416 18.1128 56.3143 17.8924 56.1759 17.679ZM55.7911 20.3871C55.7458 20.9018 55.5555 21.3932 55.2423 21.8041C55.0732 22.0327 54.9181 22.2725 54.7672 22.5133C54.6213 22.7524 54.5142 23.0133 54.4501 23.2859C54.4281 23.374 54.3925 23.4586 54.3628 23.5447C54.354 23.5629 54.3468 23.5818 54.3412 23.6012C54.3082 23.8164 54.2773 24.0319 54.2444 24.247C54.2102 24.5454 54.2167 24.847 54.2633 25.1438C54.299 25.4465 54.347 25.7483 54.3697 26.0518C54.4249 26.7904 53.9512 27.9424 53.143 28.4526C52.9409 28.5803 52.7381 28.7065 52.5365 28.8351C52.1602 29.0609 51.8335 29.3604 51.5759 29.7158C51.5504 29.7528 51.5114 29.7803 51.4832 29.8159C51.44 29.8707 51.3994 29.9273 51.3609 29.9854C51.333 30.0273 51.3155 30.077 51.2847 30.1163C51.0463 30.4284 50.8703 30.7835 50.7665 31.1622C50.7051 31.3719 50.6431 31.5816 50.5923 31.7942C50.4092 32.5616 49.9355 33.1102 49.295 33.5351C48.9671 33.7418 48.5979 33.8742 48.2135 33.9232C47.8874 33.9744 47.5597 34.0247 47.2411 34.1079C47.019 34.1788 46.8021 34.2654 46.5922 34.3671C46.4899 34.4103 46.3906 34.4608 46.2902 34.5084C46.267 34.5187 46.2448 34.531 46.2239 34.5451C46.1043 34.63 45.988 34.7198 45.866 34.8008C45.5798 34.9959 45.326 35.2348 45.1136 35.5086C44.9929 35.6595 44.87 35.809 44.7561 35.9648C44.3798 36.4791 43.8675 36.7899 43.2667 36.9703C42.9978 37.0528 42.7184 37.096 42.4371 37.0981C42.1891 37.0917 41.9429 37.0551 41.704 36.9888C41.377 36.9154 41.0518 36.8266 40.7206 36.7806C40.487 36.7483 40.245 36.7756 40.0068 36.7779C39.9663 36.7779 39.9261 36.7895 39.8856 36.7908C39.8099 36.7833 39.7336 36.7849 39.6583 36.7953C39.3032 36.8975 38.9236 36.9084 38.5881 37.0831C38.3628 37.2002 38.1355 37.3138 37.9116 37.4343C37.6385 37.5812 37.3716 37.7441 37.0633 37.807C36.1758 37.9881 35.3445 37.8803 34.6032 37.3186C34.3846 37.1528 34.1655 36.9868 33.9407 36.8293C33.6654 36.6358 33.3585 36.4918 33.0339 36.4038C32.9665 36.3824 32.9002 36.3574 32.8355 36.3289C32.8084 36.3151 32.7803 36.3035 32.7513 36.2947C32.5375 36.253 32.3237 36.2107 32.1089 36.1745C31.8113 36.1323 31.5097 36.1289 31.2114 36.1645C30.9583 36.1879 30.7057 36.2174 30.4521 36.2336C29.8722 36.271 29.3497 36.0879 28.8584 35.7991C28.4628 35.5732 28.1349 35.2457 27.9087 34.8504C27.7807 34.625 27.6497 34.4012 27.5163 34.1793C27.1224 33.5085 26.481 33.0193 25.73 32.8167C25.5248 32.7577 25.3204 32.6965 25.1135 32.6451C24.2686 32.4338 23.69 31.8947 23.2697 31.1577C23.0762 30.8182 23.0177 30.4415 22.963 30.0636C22.9104 29.7013 22.8667 29.335 22.7217 28.9959C22.443 28.344 22.0778 27.751 21.5048 27.3096C21.3477 27.1886 21.1951 27.0616 21.035 26.9447C20.4648 26.5286 20.1432 25.9549 19.9745 25.2837C19.8663 24.8475 19.8692 24.391 19.9827 23.956C20.0701 23.6322 20.1408 23.3044 20.1942 22.9734C20.2219 22.726 20.2243 22.4765 20.2011 22.2288C20.1963 22.1551 20.1784 21.9017 20.1501 21.6755C20.1302 21.5164 20.113 21.3596 20.0928 21.2292C20.047 20.7758 19.851 20.4019 19.6379 20.0056C19.5296 19.8044 19.4211 19.6027 19.3208 19.397C19.1296 18.9839 19.053 18.527 19.0992 18.0741C19.1148 17.8766 19.1448 17.6804 19.1888 17.4873C19.2642 17.1535 19.4124 16.8406 19.6226 16.5709C19.7898 16.3531 19.9594 16.137 20.1217 15.9153C20.3426 15.6042 20.5141 15.2608 20.6298 14.8974C20.6967 14.7004 20.7325 14.4987 20.7916 14.3018C20.9181 13.8803 20.9087 13.4484 20.872 13.0158C20.8569 12.8386 20.8408 12.6614 20.8247 12.4842C20.7664 11.8329 20.9591 11.2491 21.3038 10.707C21.5287 10.3411 21.8432 10.0386 22.2175 9.82809C22.4622 9.69271 22.7056 9.55492 22.9455 9.4115C23.2705 9.2111 23.5594 8.95712 23.8001 8.66082C24.1641 8.22703 24.4287 7.71891 24.5755 7.17215C24.6203 7.01068 24.677 6.85217 24.7225 6.69111C24.9592 5.84877 25.9846 4.88415 27.0798 4.79404C27.3579 4.77105 27.6339 4.71901 27.9104 4.68108C28.1712 4.64892 28.4231 4.56515 28.6511 4.43485C28.8793 4.30454 29.0793 4.13023 29.2395 3.92194C29.3976 3.72295 29.5607 3.52706 29.7047 3.31806C30.2052 2.59235 30.9167 2.22554 31.7666 2.09382C32.1452 2.03501 32.5145 2.1044 32.884 2.18633C33.1962 2.25558 33.5114 2.31128 33.8273 2.3605C34.2584 2.42777 34.6557 2.30846 35.0269 2.09988C35.2835 1.95562 35.5354 1.80077 35.7785 1.63464C36.5605 1.10015 37.4077 1.02513 38.3016 1.26008C38.5167 1.32326 38.7209 1.41873 38.9073 1.54312C39.1488 1.69401 39.3857 1.85224 39.6287 2.00046C39.9456 2.18379 40.2881 2.31847 40.6451 2.39971C40.8423 2.44991 41.0413 2.4681 41.2382 2.50971C41.7058 2.60899 42.1688 2.55074 42.6311 2.46712C42.9311 2.4124 43.2303 2.33639 43.5372 2.35514C44.4382 2.41028 45.2022 2.74832 45.7624 3.47799C45.9263 3.69136 46.0676 3.92208 46.2211 4.14363C46.4578 4.4811 46.7488 4.77726 47.0819 5.0201C47.257 5.15041 47.4456 5.25421 47.6236 5.37619C47.9727 5.61636 48.371 5.73976 48.7791 5.83453C48.9228 5.86781 49.0664 5.90123 49.2105 5.93155C50.0385 6.10544 50.63 6.60269 51.0791 7.29527C51.2857 7.61385 51.3698 7.97346 51.4441 8.33886C51.5006 8.64855 51.5731 8.95514 51.6614 9.25722C51.7422 9.47059 51.8378 9.67804 51.9477 9.87801C51.9866 9.96023 52.0305 10.0402 52.0725 10.1211C52.0845 10.1488 52.0989 10.1753 52.1154 10.2005C52.1977 10.3091 52.287 10.4128 52.3651 10.5245C52.5903 10.8333 52.8645 11.1031 53.1767 11.3234C53.3156 11.4263 53.4543 11.5298 53.5967 11.6279C54.1886 12.0343 54.5204 12.6126 54.7091 13.2896C54.8458 13.7796 54.8077 14.2641 54.6935 14.7517C54.6311 15.0185 54.5884 15.2902 54.5461 15.5611C54.5086 15.8284 54.5173 16.1003 54.5719 16.3649C54.577 16.3793 54.5798 16.3944 54.5802 16.4096C54.549 16.6346 54.6572 16.8352 54.6919 17.0486C54.7548 17.4353 54.9232 17.7835 55.121 18.1179C55.2325 18.306 55.3451 18.4933 55.4573 18.681C55.7726 19.2093 55.8423 19.7865 55.7909 20.3868L55.7911 20.3871Z" fill="white"/>
<path d="M48.0009 19.5145C47.9978 13.6817 43.2631 8.98006 37.4963 8.95566C31.6219 8.93112 26.9043 13.7213 26.8945 19.4934C26.885 25.2654 31.5821 30.0651 37.445 30.0673C43.2609 30.0697 48.0004 25.3309 48.0009 19.5145ZM37.4215 29.2143C32.0438 29.2016 27.741 24.8134 27.748 19.5045C27.752 16.9331 28.7758 14.4681 30.5946 12.6502C32.4136 10.8323 34.8791 9.81013 37.4507 9.8076C42.8809 9.81676 47.156 14.2533 47.1484 19.5264C47.1407 24.788 42.8636 29.227 37.4215 29.2143Z" fill="white"/>
<path d="M48.5702 12.9978L48.0391 13.1823C48.0573 13.2441 48.0684 13.2878 48.0829 13.3307C48.1653 13.571 48.2524 13.8096 48.3293 14.0517C48.3397 14.0928 48.3623 14.1297 48.3937 14.1582C48.4252 14.1866 48.4644 14.205 48.5063 14.2114C49.2695 14.4049 50.0312 14.6044 50.7929 14.8024C50.8445 14.8157 50.8953 14.8319 50.9464 14.8467C50.9472 14.8584 50.9479 14.8701 50.9486 14.8818C50.6968 14.9701 50.4461 15.0613 50.1929 15.146C49.9354 15.2317 49.6834 15.3368 49.4152 15.404L49.3137 15.1529L48.7782 15.3414L49.2163 16.6027L49.7541 16.4155L49.6448 16.0721C50.3183 15.8342 50.982 15.6039 51.6517 15.3762C51.6997 15.4989 51.7396 15.6009 51.7836 15.7132L52.3186 15.5277C52.3037 15.4747 52.2937 15.4308 52.2791 15.3887C52.1964 15.1485 52.1053 14.9109 52.0321 14.6679C52.0204 14.6196 51.9941 14.5761 51.957 14.5429C51.9199 14.5098 51.8737 14.4888 51.8245 14.4826C51.0498 14.2926 50.2767 14.0967 49.503 13.9022C49.4595 13.8914 49.4166 13.8767 49.3734 13.8637L49.3713 13.8278L50.925 13.2892C50.9631 13.3775 50.9947 13.4504 51.0312 13.5352L51.5675 13.3493L51.1364 12.1084L50.6002 12.2953C50.6342 12.4112 50.6634 12.5113 50.6961 12.623L48.6905 13.3176L48.5702 12.9978Z" fill="white"/>
<path d="M46.1119 9.72252L45.6699 10.0687C45.6981 10.1095 45.719 10.1435 45.7434 10.1748C45.9056 10.3835 46.0731 10.5884 46.2288 10.8016C46.2515 10.8375 46.2845 10.8655 46.3236 10.8823C46.3625 10.899 46.4057 10.9036 46.4473 10.8953C46.6849 10.8719 46.9234 10.8564 47.1614 10.838C47.6275 10.8016 48.0936 10.7653 48.5595 10.7289C48.6934 10.7186 48.8278 10.7125 48.9619 10.7045L48.9754 10.7379L47.6977 11.7352C47.6292 11.6563 47.5739 11.5925 47.513 11.5224L47.0671 11.8713L47.8899 12.9265L48.3373 12.5767L48.1236 12.2833C48.685 11.8433 49.2369 11.4085 49.799 10.9772L50.0299 11.2563L50.4747 10.9076C50.4441 10.8621 50.4236 10.828 50.3994 10.7968C50.2344 10.5839 50.0668 10.3731 49.9044 10.1581C49.8841 10.127 49.8549 10.1023 49.8206 10.0875C49.7863 10.0727 49.7485 10.0683 49.7119 10.0749C48.973 10.1409 48.2336 10.201 47.4942 10.2622C47.3799 10.2717 47.2651 10.2765 47.1508 10.2834C47.1453 10.2729 47.1398 10.2625 47.1345 10.2521C47.5666 9.91516 47.9964 9.575 48.4367 9.23795L48.614 9.43694L49.0612 9.08832C48.7904 8.74126 48.5258 8.40252 48.2527 8.05249L47.8028 8.4028C47.8771 8.50434 47.9387 8.58881 48.0056 8.67991L46.3298 9.98722L46.1119 9.72252Z" fill="white"/>
<path d="M23.2486 15.4043C23.9289 15.6378 24.5968 15.857 25.262 16.0935L25.1622 16.4166L25.7006 16.5987C25.8516 16.155 25.998 15.7246 26.1492 15.2812C25.9628 15.2182 25.7914 15.1598 25.6117 15.0987C25.5677 15.212 25.5283 15.3135 25.4855 15.4239L23.472 14.7385C23.6157 14.2922 23.7625 13.8632 23.9163 13.4283L25.9343 14.1151C25.8989 14.2287 25.8678 14.3283 25.832 14.4432L26.3726 14.6271C26.5243 14.1789 26.6701 13.7484 26.8191 13.3082L26.2805 13.1249L26.16 13.4521L24.143 12.7653C24.1799 12.6457 24.2108 12.5459 24.2459 12.4319L23.708 12.251C23.3343 13.3503 22.9641 14.4393 22.5898 15.5403L23.1257 15.7227C23.169 15.6105 23.2068 15.5129 23.2486 15.4043Z" fill="white"/>
<path d="M37.9732 6.95936C38.2217 6.97501 38.4702 6.99617 38.719 6.99885C38.9449 7.00279 39.165 6.92664 39.3402 6.78378C39.5155 6.64092 39.6342 6.44067 39.6758 6.21841C39.7355 5.92494 39.6854 5.66235 39.4475 5.45659C39.4331 5.44136 39.4209 5.42415 39.4111 5.40568C39.4881 5.33545 39.5596 5.25929 39.6249 5.17806C39.7727 4.96272 39.7815 4.71818 39.7252 4.47477C39.6244 4.03872 39.2767 3.753 38.8056 3.71521C38.3345 3.67741 37.863 3.64906 37.3916 3.61776C37.3371 3.61409 37.2824 3.61719 37.22 3.61719C37.1918 3.80264 37.1812 3.99035 37.1883 4.17777L37.5083 4.22135C37.4637 4.93465 37.4215 5.63118 37.3647 6.33391H37.0309C37.0198 6.52119 37.009 6.70072 36.998 6.88631C37.0478 6.8928 37.077 6.89829 37.1065 6.90041C37.3955 6.92044 37.6843 6.94131 37.9732 6.95936ZM38.2165 4.25999C38.4053 4.27183 38.5777 4.27226 38.7472 4.29595C38.9562 4.32528 39.0823 4.59478 39.0012 4.81408C38.9806 4.88826 38.9343 4.95271 38.8706 4.99586C38.807 5.03915 38.73 5.05833 38.6534 5.05015C38.5115 5.04409 38.3699 5.03112 38.2282 5.0204C38.2064 5.01574 38.1848 5.00926 38.1639 5.00108C38.1813 4.75358 38.1983 4.51285 38.2165 4.25999ZM38.1265 5.59649C38.3327 5.60974 38.5139 5.62032 38.6949 5.634C38.725 5.63767 38.7542 5.64683 38.7813 5.66108C38.9277 5.73088 39.0006 5.92254 38.9582 6.12223C38.9472 6.206 38.9057 6.28272 38.8415 6.33772C38.7775 6.39272 38.6953 6.42219 38.6108 6.42022C38.4491 6.41472 38.2879 6.39892 38.1264 6.38637C38.1078 6.38073 38.0901 6.37269 38.0738 6.3624C38.0909 6.1156 38.1081 5.86556 38.1265 5.59649Z" fill="white"/>
<path d="M43.1872 7.66861C43.0734 7.82473 42.9676 7.9752 42.8672 8.13879L44.0089 8.92318L44.3296 8.45427L44.0505 8.2471L44.6892 7.31788C44.7095 7.38529 44.7222 7.41717 44.7283 7.45059C44.8039 7.85505 44.8743 8.2605 44.9559 8.66369C44.9686 8.71235 44.9697 8.76326 44.9592 8.81233C44.9486 8.86141 44.9266 8.90724 44.8951 8.94645C44.8008 9.07069 44.7174 9.20326 44.6214 9.34442L45.5044 9.95069C45.6252 9.77455 45.7385 9.60927 45.8533 9.44201C45.8232 9.41353 45.7901 9.38814 45.7548 9.36656C45.7141 9.34569 45.6798 9.31438 45.6554 9.27588C45.631 9.23738 45.6173 9.19296 45.6159 9.14727C45.5457 8.74196 45.4711 8.33722 45.3996 7.93205C45.3945 7.88735 45.3923 7.84236 45.393 7.79723C45.4659 7.78553 45.5251 7.7734 45.5852 7.76691C45.9084 7.73179 46.2329 7.70274 46.5551 7.66241C46.724 7.64126 46.8895 7.60783 47.0286 7.77227L47.3837 7.25414L46.4758 6.63123C46.3696 6.78396 46.2714 6.91949 46.1803 7.05967C46.1625 7.08985 46.1376 7.11509 46.1075 7.13314C46.0776 7.15119 46.0435 7.16149 46.0085 7.1629C45.6145 7.20535 45.2215 7.25541 44.8279 7.30138C44.7865 7.30237 44.7452 7.3004 44.704 7.29588L45.2521 6.49711L45.5474 6.68172L45.8693 6.21337L44.7214 5.42603L44.401 5.89564L44.6648 6.09378C44.5139 6.37132 43.5395 7.76719 43.4474 7.83742L43.1872 7.66861Z" fill="white"/>
<path d="M25.0437 11.2655L26.7379 12.4435L26.5497 12.734L27.016 13.0583L28.5036 10.916L27.5504 10.254L27.1602 10.8165C27.3233 10.9315 27.4752 11.0387 27.6397 11.1549C27.4706 11.3978 27.3095 11.6288 27.1414 11.8703L26.4969 11.4207L26.8637 10.8774L26.3697 10.5348C26.2407 10.7165 26.1181 10.8884 25.9895 11.0696L25.4382 10.6857C25.61 10.4371 25.7651 10.2027 25.9368 9.97368C26.0753 10.0662 26.1958 10.1469 26.3232 10.2319L26.7107 9.66935L25.8046 9.0415L24.3184 11.1827L24.8331 11.541L25.0437 11.2655Z" fill="white"/>
<path d="M34.8125 7.24042C35.3789 7.24253 35.8037 7.04905 36.0931 6.70819C36.7274 5.96188 36.6046 4.7877 35.8282 4.17635C35.5287 3.93294 35.1478 3.81293 34.7628 3.84057C34.3779 3.86821 34.018 4.04139 33.7564 4.32514C33.267 4.84016 33.1645 5.68307 33.5195 6.34265C33.8197 6.9004 34.2854 7.20897 34.8125 7.24042ZM34.1648 4.91081C34.2201 4.80885 34.2974 4.72043 34.3909 4.65189C34.4844 4.58335 34.592 4.53639 34.7059 4.51439C34.8199 4.49253 34.9371 4.49606 35.0495 4.52483C35.1619 4.55374 35.2664 4.60719 35.3556 4.68122C35.5584 4.85652 35.6982 5.09372 35.7533 5.35603C35.8085 5.61848 35.7759 5.89165 35.661 6.13393C35.6061 6.24619 35.5253 6.34392 35.4254 6.41908C35.3255 6.49411 35.2091 6.54431 35.0858 6.56575C34.9627 6.58704 34.8362 6.57887 34.7169 6.54178C34.5975 6.50469 34.4886 6.43981 34.3992 6.35238C34.2796 6.23815 34.185 6.10051 34.1212 5.94792C34.0573 5.79547 34.0258 5.63131 34.0284 5.46603C34.0239 5.27212 34.0709 5.08047 34.1648 4.91081Z" fill="white"/>
<path d="M40.8157 7.4053C41.0902 7.6119 41.4273 7.71781 41.7706 7.70498C42.114 7.69229 42.4423 7.56156 42.7005 7.33507C42.7623 7.27937 42.8129 7.21167 42.8764 7.14102L42.2989 6.74981C42.253 6.78817 42.2229 6.81511 42.1909 6.83993C41.7187 7.20815 41.0978 7.00944 40.9249 6.43519C40.8683 6.24931 40.8624 6.05174 40.9077 5.8629C40.9919 5.50343 41.1786 5.21672 41.5199 5.05384C41.8951 4.87474 42.3814 5.01647 42.5265 5.37552C42.5556 5.45731 42.606 5.52966 42.6727 5.58508C42.7394 5.64051 42.82 5.67689 42.9056 5.69029C42.94 5.69847 42.9727 5.71342 43.007 5.72371C43.0827 5.74656 43.1586 5.7687 43.2445 5.79394C43.3209 5.56294 43.3921 5.3483 43.4659 5.1252C43.3504 5.08613 43.2511 5.0482 43.1493 5.01901C43.1053 5.00829 43.0639 4.98869 43.0278 4.96133C42.9917 4.93397 42.9617 4.89942 42.9394 4.86007C42.8534 4.70875 42.7262 4.58507 42.5726 4.50328C42.3745 4.39201 42.154 4.32685 41.9273 4.31261C41.7007 4.29822 41.4736 4.33503 41.2632 4.42035C40.5837 4.68562 40.1398 5.39075 40.1717 6.14905C40.1931 6.66562 40.397 7.09335 40.8157 7.4053Z" fill="white"/>
<path d="M29.1786 10.1346C29.8676 9.98916 30.4382 9.30406 30.3477 8.51897C30.342 8.39078 30.304 8.26611 30.237 8.15654L29.618 8.44691C29.6275 8.50163 29.6337 8.53646 29.6392 8.57143C29.6631 8.69441 29.6569 8.82147 29.621 8.94163C29.585 9.06178 29.5204 9.17136 29.4328 9.26091C29.3451 9.3506 29.2371 9.41759 29.1178 9.45623C28.9986 9.49487 28.8717 9.50403 28.7482 9.48288C28.2077 9.40969 27.7514 8.88028 27.757 8.33437C27.7621 7.85178 28.1692 7.46029 28.6506 7.55168C28.6988 7.56338 28.7491 7.56183 28.7965 7.5473C28.8438 7.53278 28.8865 7.5057 28.9196 7.46904C29.0083 7.38541 29.1045 7.3101 29.1961 7.22957C29.2252 7.20377 29.2501 7.17302 29.2812 7.14002L28.824 6.6123C28.7221 6.69875 28.6321 6.77237 28.5455 6.84979C28.4971 6.8945 28.434 6.9196 28.3681 6.92002C28.1997 6.91763 28.033 6.95542 27.8821 7.03045C27.6094 7.17246 27.3875 7.39584 27.2475 7.66957C26.943 8.29079 27.0121 8.891 27.4166 9.43592C27.8526 10.0237 28.4458 10.2888 29.1786 10.1346Z" fill="white"/>
<path d="M30.5416 6.40033L30.3642 6.01237L30.7423 5.82861C31.0591 6.48015 31.3688 7.1173 31.6824 7.76292L31.3805 7.92524C31.4685 8.10039 31.5419 8.26962 31.6353 8.43223C31.859 8.32293 32.0654 8.22506 32.2698 8.12282C32.4716 8.0217 32.6821 7.9368 32.8786 7.81679L32.6299 7.31333L32.3148 7.45816L31.3719 5.51878L31.8016 5.31514L31.9952 5.69308L32.612 5.39157L32.1823 4.50903L29.498 5.81592L29.9286 6.69832L30.5416 6.40033Z" fill="white"/>
<path d="M39.408 33.2271L39.7412 33.2011V32.702C39.6807 32.702 39.6411 32.7006 39.6015 32.702C39.3882 32.7109 39.175 32.7262 38.9619 32.7277C38.9195 32.7253 38.8773 32.7348 38.8397 32.7548C38.8023 32.7748 38.771 32.8049 38.7495 32.8415C38.5544 33.1268 38.3533 33.4076 38.1533 33.6894C38.1285 33.7243 38.0983 33.7558 38.0651 33.7951C38.0327 33.7604 38.0111 33.7391 37.9915 33.7162C37.7578 33.4413 37.5232 33.1673 37.2925 32.8899C37.2736 32.8634 37.248 32.8424 37.2184 32.8288C37.1888 32.8154 37.1562 32.8099 37.1238 32.8132C36.9666 32.8222 36.8087 32.8216 36.6515 32.8291C36.5474 32.8342 36.4436 32.8462 36.3412 32.8549C36.3412 32.9563 36.3377 33.0375 36.3424 33.1184C36.3467 33.1969 36.3596 33.2749 36.3687 33.3533H36.6859C36.699 33.6741 36.7116 33.9855 36.7246 34.3025L36.393 34.3306C36.402 34.5027 36.4102 34.6615 36.4191 34.8334L37.5397 34.783V34.2908L37.3081 34.2702C37.2981 34.0744 37.2885 33.8867 37.2788 33.6988L37.3157 33.6847L38.1039 34.5822C38.2316 34.4075 38.3472 34.2482 38.4637 34.0897C38.5788 33.9331 38.6876 33.7712 38.8103 33.6203L38.8443 33.6337C38.8525 33.8233 38.8608 34.013 38.8693 34.2075L38.6546 34.2346C38.6644 34.4014 38.6737 34.5605 38.6837 34.7345L39.7998 34.6836V34.1749H39.4486C39.4351 33.8541 39.4218 33.5466 39.408 33.2271Z" fill="white"/>
<path d="M40.7224 32.445C40.699 32.4671 40.6731 32.4865 40.6382 32.5158C40.6154 32.4481 40.6119 32.3755 40.6281 32.3059C40.6442 32.2364 40.6793 32.1728 40.7295 32.1222C40.8419 32.0034 40.9836 31.9163 41.1403 31.8695C41.309 31.8136 41.4796 31.7637 41.649 31.7101C41.715 31.6891 41.7798 31.665 41.8501 31.6407C41.7949 31.4467 41.744 31.2669 41.6862 31.0642C41.5267 31.1084 41.3854 31.1469 41.2448 31.1875C41.2355 31.1899 41.2267 31.194 41.2191 31.1996C41.2115 31.2054 41.205 31.2126 41.2001 31.2207C41.2157 31.3312 41.1208 31.3254 41.0626 31.3472C40.8695 31.4118 40.6879 31.5062 40.5242 31.6269C40.1943 31.8877 40.033 32.227 40.1148 32.644C40.1847 32.9765 40.2731 33.3047 40.3796 33.6274C40.4232 33.7519 40.491 33.8664 40.5792 33.9645C40.9938 34.4435 41.7052 34.3343 42.075 33.9973C42.4228 33.6804 42.5034 33.1989 42.2884 32.739C42.2256 32.5949 42.1286 32.4683 42.0056 32.3704C41.8828 32.2724 41.7377 32.2061 41.5833 32.177C41.4288 32.148 41.2696 32.1573 41.1196 32.204C40.9695 32.2508 40.8333 32.3334 40.7224 32.445ZM41.3758 33.7623C41.0949 33.7695 40.8406 33.5089 40.8389 33.2119C40.8402 33.0762 40.8941 32.9465 40.9891 32.8497C41.084 32.753 41.2128 32.6969 41.3483 32.6931C41.6229 32.6924 41.8372 32.9401 41.8399 33.2614C41.8429 33.3249 41.8332 33.3883 41.8113 33.4481C41.7894 33.5078 41.756 33.5625 41.7127 33.609C41.6696 33.6557 41.6175 33.6932 41.5596 33.7194C41.5016 33.7458 41.4391 33.7603 41.3757 33.7622L41.3758 33.7623Z" fill="white"/>
<path d="M47.7048 30.1443L47.0908 29.4128L47.2974 29.2178L46.9756 28.8364L46.1023 29.5722L46.4254 29.9546L46.6464 29.7855L46.8073 29.9792L46.1397 30.541C46.083 30.4708 46.0339 30.4101 45.9758 30.3381L46.1779 30.1659C46.0657 30.0319 45.9633 29.9098 45.8545 29.78L44.9805 30.5156C45.0926 30.6492 45.1955 30.7719 45.3023 30.8986L45.5368 30.7205L46.1521 31.4537L45.9372 31.654C46.0485 31.7865 46.1491 31.906 46.2583 32.036L47.1324 31.3003C47.0179 31.1645 46.9151 31.0428 46.8091 30.9168C46.7305 30.9776 46.6676 31.0261 46.5944 31.0827L46.3897 30.835L47.0589 30.2728L47.2609 30.5211L47.0592 30.7092L47.3811 31.0917L48.2531 30.356L47.9331 29.9742L47.7048 30.1443Z" fill="white"/>
<path d="M45.1354 32.1336C44.989 31.8496 44.846 31.5726 44.7012 31.2918L44.903 31.166L44.67 30.7227C44.4771 30.8224 44.2999 30.9202 44.1169 31.0056C44.0753 31.0225 44.0389 31.0503 44.012 31.0862C43.9849 31.122 43.9681 31.1646 43.9635 31.2093C43.8872 31.6392 43.8038 32.0678 43.722 32.4966C43.7105 32.5392 43.6968 32.5811 43.6807 32.6223L43.3525 31.9872L43.5522 31.8602C43.4758 31.7125 43.4025 31.5713 43.3235 31.4186C43.0028 31.5852 42.698 31.7434 42.3809 31.908L42.6107 32.3495L42.8398 32.2528L43.2768 33.0984L43.0713 33.2271C43.1458 33.3844 43.2178 33.5262 43.3022 33.6671C43.4947 33.5677 43.6676 33.4701 43.8477 33.3889C43.8939 33.3701 43.9343 33.3391 43.9642 33.2991C43.9942 33.259 44.0125 33.2116 44.0173 33.1618C44.0946 32.7426 44.1792 32.3246 44.2621 31.9063C44.2741 31.8661 44.2885 31.8267 44.3056 31.7885C44.4211 32.0095 44.5287 32.2007 44.6194 32.4027L44.4122 32.532L44.6428 32.974L45.5851 32.4829C45.502 32.3253 45.4294 32.1872 45.355 32.0459L45.1354 32.1336Z" fill="white"/>
<path d="M25.7152 26.8067L26.1548 26.5831C25.8093 25.9026 25.4724 25.2387 25.1328 24.5696C24.9809 24.6368 24.833 24.7129 24.6898 24.7971C24.7328 24.8907 24.7679 24.9674 24.8095 25.0578C24.6481 25.1309 24.5035 25.2052 24.3526 25.2624C24.0977 25.3592 23.8982 25.293 23.7402 25.0719C23.7084 25.0278 23.6792 24.9819 23.6423 24.9271L23.2031 25.1543C23.2597 25.2644 23.304 25.3557 23.3528 25.4445C23.4327 25.6056 23.5643 25.7352 23.7266 25.8124C23.8889 25.8897 24.0725 25.9105 24.248 25.8711C24.4828 25.8254 24.7096 25.7463 24.9217 25.6357C24.9695 25.6123 25.0193 25.593 25.0747 25.5689C25.16 25.7368 25.2431 25.8853 25.3136 26.0509L24.452 26.4874L24.3177 26.2366C24.0692 26.3321 23.9425 26.4056 23.8815 26.4898L24.4185 27.55C24.5732 27.4853 24.7228 27.4097 24.8667 27.3237L24.718 27.0033C25.0112 26.8535 25.2876 26.7084 25.5752 26.5721L25.7152 26.8067Z" fill="white"/>
<path d="M32.6798 32.3593C32.6198 32.5119 32.4682 32.5539 32.3479 32.6332C32.3285 32.6382 32.3076 32.6358 32.2898 32.6265C32.2339 32.6055 32.1791 32.5814 32.1136 32.5542C32.2116 32.2975 32.3052 32.0524 32.4041 31.7935L31.5808 31.4727C31.5183 31.6365 31.4613 31.7855 31.4018 31.941C31.4599 31.966 31.5015 31.9833 31.5423 32.0018C31.5867 32.0217 31.6307 32.0428 31.6839 32.0676C31.5658 32.3699 31.4538 32.6567 31.3358 32.9591L31.043 32.8558L30.8611 33.325L31.8771 33.7202L32.0573 33.2561L31.8757 33.1624C31.9082 33.0839 31.9381 33.0111 31.9666 32.9426C32.0273 32.9419 32.0862 32.9626 32.133 33.0012C32.1798 33.0397 32.2116 33.0936 32.2224 33.1533C32.2949 33.3912 32.3814 33.6248 32.4666 33.8587C32.4792 33.9062 32.508 33.9478 32.5481 33.9764C32.6894 34.042 32.8367 34.0935 32.9937 34.1548L33.1761 33.6846C33.105 33.6562 33.0476 33.6371 32.994 33.6102C32.9566 33.5964 32.9245 33.5715 32.9018 33.5388C32.8222 33.3594 32.7506 33.1764 32.6722 32.9847C32.8556 32.879 33.0205 32.7795 33.1902 32.6897C33.2325 32.6776 33.2776 32.6796 33.3188 32.6953C33.3898 32.7141 33.4584 32.7422 33.5359 32.7695C33.5984 32.6075 33.6547 32.4628 33.716 32.3041L32.8374 31.962C32.7805 32.1053 32.7297 32.2325 32.6798 32.3593Z" fill="white"/>
<path d="M52.3093 20.652C52.1772 20.6465 52.0449 20.6506 51.9126 20.6502C51.6907 20.6493 51.6567 20.6238 51.5881 20.409C51.5572 20.3121 51.5262 20.2154 51.4952 20.1186C51.4873 20.0945 51.4788 20.0706 51.47 20.0467C51.4582 20.0099 51.435 19.9779 51.4035 19.9553C51.3721 19.9328 51.3341 19.9211 51.2956 19.9219C51.2567 19.9212 51.2189 19.9335 51.1878 19.9566C51.1566 19.9797 51.1342 20.0125 51.1235 20.0498C51.0762 20.1839 51.0345 20.3202 50.9888 20.4547C50.9341 20.6162 50.891 20.6481 50.7243 20.6498C50.5819 20.6516 50.4395 20.6476 50.2972 20.6516C50.2536 20.6464 50.2096 20.6565 50.1728 20.6804C50.1361 20.7043 50.1089 20.7403 50.0959 20.7823C50.0694 20.8664 50.0945 20.9345 50.1844 21.0049C50.2963 21.0929 50.4107 21.177 50.5237 21.2643C50.6624 21.3718 50.6811 21.4261 50.6316 21.5921C50.5895 21.7333 50.5403 21.8723 50.5001 22.014C50.4823 22.0542 50.4795 22.0995 50.4922 22.1417C50.5051 22.1837 50.5326 22.2198 50.5698 22.2432C50.6038 22.2665 50.6445 22.2773 50.6856 22.2741C50.7266 22.2707 50.7651 22.2535 50.7949 22.2251C50.8807 22.162 50.9679 22.0999 51.0539 22.0367C51.2837 21.8682 51.3089 21.8676 51.5347 22.0295C51.6214 22.092 51.707 22.1558 51.7953 22.2157C51.8891 22.2793 51.9633 22.2817 52.0348 22.229C52.1063 22.1762 52.1219 22.108 52.0907 21.9954C52.0838 21.9709 52.0757 21.9468 52.0678 21.9226C52.0319 21.8115 51.994 21.701 51.9604 21.589C51.9146 21.4357 51.9352 21.3722 52.0631 21.272C52.1789 21.1809 52.2966 21.0924 52.4143 21.0032C52.4403 20.9878 52.4625 20.9665 52.4789 20.9408C52.4951 20.9153 52.5051 20.8863 52.5079 20.8561C52.51 20.8291 52.5065 20.8021 52.4973 20.7767C52.4883 20.7513 52.4738 20.7282 52.455 20.7088C52.4361 20.6895 52.4134 20.6744 52.3883 20.6647C52.3631 20.6548 52.3363 20.6506 52.3093 20.652Z" fill="white"/>
<path d="M23.7472 21.9697C23.8565 22.0438 23.9618 22.1236 24.0701 22.199C24.1856 22.2794 24.2584 22.287 24.3336 22.2274C24.4264 22.1541 24.4127 22.0615 24.3804 21.9644C24.3401 21.8441 24.3024 21.7229 24.2652 21.6015C24.2117 21.4262 24.2291 21.3728 24.3736 21.2616C24.4907 21.172 24.6103 21.0861 24.7244 20.993C24.8337 20.9039 24.8454 20.7837 24.7478 20.708C24.6984 20.6743 24.6403 20.6554 24.5805 20.6534C24.4437 20.6456 24.3062 20.6519 24.1691 20.6503C24.0006 20.6482 23.9592 20.6179 23.9044 20.4558C23.859 20.3213 23.8173 20.1853 23.7712 20.0511C23.76 20.0143 23.7375 19.982 23.7069 19.9589C23.6763 19.9356 23.639 19.9226 23.6005 19.9219C23.5622 19.9212 23.5244 19.9328 23.4929 19.9548C23.4615 19.9768 23.4378 20.0081 23.4251 20.0445C23.4124 20.0776 23.4017 20.1114 23.3904 20.1452C23.3523 20.2609 23.3147 20.3767 23.2763 20.4924C23.2647 20.5399 23.237 20.5818 23.1975 20.6107C23.1581 20.6397 23.1098 20.6537 23.061 20.6504C22.9848 20.6499 22.9087 20.6504 22.8324 20.6504V20.6513H22.6039C22.5603 20.6468 22.5166 20.6566 22.4792 20.6792C22.4419 20.7016 22.4128 20.7358 22.3963 20.7761C22.3625 20.8594 22.3918 20.9322 22.4899 21.0103C22.5977 21.0951 22.7085 21.1765 22.817 21.26C22.9686 21.3759 22.9842 21.4264 22.9259 21.6128C22.8848 21.7437 22.8373 21.8727 22.8039 22.0053C22.7882 22.0627 22.7906 22.1235 22.8109 22.1794C22.856 22.2824 22.9762 22.3038 23.0823 22.2326C23.2047 22.1507 23.3206 22.0596 23.4413 21.9751C23.4821 21.9356 23.5365 21.9132 23.5932 21.9122C23.6499 21.9112 23.7049 21.9318 23.7472 21.9697Z" fill="white"/>
<path d="M50.5814 26.2299C50.2853 26.0755 49.9987 25.9295 49.7151 25.7596L49.879 25.4669L50.2189 25.6322L50.4834 25.1351L49.7179 24.7249L48.584 26.8398C48.846 26.9804 49.0912 27.1178 49.352 27.2482L49.6156 26.7538L49.2847 26.5666L49.4427 26.2778C49.738 26.4365 50.0251 26.5817 50.3043 26.7455C50.2555 26.8476 50.2148 26.9328 50.1711 27.0239L50.6111 27.2591L51.1953 26.1705L50.7531 25.9353C50.6927 26.0392 50.6398 26.1296 50.5814 26.2299Z" fill="white"/>
<path d="M49.4521 28.1145C49.3734 28.0536 49.3058 28.0017 49.2383 27.9494C49.0815 27.8281 48.9309 27.6978 48.7669 27.5871C48.4801 27.3936 48.2067 27.4118 47.9384 27.6307C47.7515 27.782 47.6072 27.9793 47.5195 28.2031C47.4523 28.3551 47.417 28.5195 47.416 28.6858L47.7893 28.7659C47.8088 28.7054 47.8215 28.6621 47.8361 28.6197C47.8983 28.4193 48.0168 28.241 48.1774 28.1059C48.3227 27.9904 48.4437 28.0045 48.5782 28.1412C48.5047 28.2199 48.4383 28.2895 48.3732 28.3607C48.2313 28.5006 48.1275 28.6744 48.0719 28.8658C48.0405 28.9715 48.0409 29.0842 48.0732 29.1897C48.1055 29.2952 48.1681 29.3888 48.2534 29.4589C48.3341 29.5383 48.4372 29.5911 48.5487 29.6101C48.6603 29.6291 48.7749 29.6136 48.8773 29.5655C48.9865 29.5125 49.0866 29.4424 49.1739 29.3581C49.3187 29.224 49.4063 29.0394 49.4189 28.8424C49.4634 28.8429 49.5074 28.8329 49.5475 28.8132C49.7063 28.6233 49.8582 28.4276 50.0188 28.2254L49.6266 27.9124L49.4521 28.1145ZM49.0189 28.8325C48.9831 28.9047 48.9361 28.9707 48.8799 29.0284C48.8452 29.0695 48.7958 29.0956 48.7424 29.1014C48.6888 29.1072 48.635 29.092 48.5924 29.0591C48.5497 29.0261 48.5215 28.978 48.5133 28.9247C48.5053 28.8714 48.5181 28.8171 48.5492 28.7731C48.5779 28.7257 48.6105 28.6807 48.6467 28.6387C48.7123 28.5555 48.7794 28.4734 48.8466 28.3916C48.8577 28.3836 48.8698 28.3772 48.8828 28.3729C49.114 28.5269 49.1355 28.5925 49.0185 28.8326L49.0189 28.8325Z" fill="white"/>
<path d="M25.8707 28.0589L26.7816 29.2104C26.9408 29.0982 27.0778 28.9573 27.1855 28.7951C27.2729 28.6631 27.3231 28.5099 27.3309 28.3519C27.3398 27.9341 27.1391 27.6273 26.7935 27.425C26.1188 27.03 25.3745 27.5356 25.2313 28.1292C25.2045 28.2375 25.1968 28.3496 25.2083 28.4606C25.2642 28.9381 25.6712 29.3861 26.1614 29.5136L26.3252 29.1384C26.2712 29.1013 26.2233 29.0733 26.1813 29.0381C26.0804 28.9536 25.9775 28.8707 25.8847 28.7776C25.7898 28.6833 25.7318 28.558 25.7215 28.4246C25.7085 28.3558 25.7157 28.2847 25.7422 28.2199C25.7688 28.155 25.8133 28.0991 25.8707 28.0589ZM26.7313 27.964C26.8796 28.1513 26.8754 28.3145 26.7036 28.4915L26.1904 27.8408C26.387 27.7229 26.5787 27.7711 26.7313 27.964Z" fill="white"/>
<path d="M34.7704 32.4695C34.6316 32.4691 34.4941 32.4966 34.3661 32.5502C34.238 32.6037 34.122 32.6824 34.0246 32.7816C33.9275 32.8807 33.851 32.9982 33.7999 33.1272C33.7487 33.2564 33.7238 33.3943 33.7268 33.5331C33.7268 34.0863 34.1244 34.5664 34.8096 34.5712C35.5108 34.5761 35.8446 34.0014 35.8443 33.5196C35.8485 32.9302 35.3833 32.4751 34.7704 32.4695ZM34.7834 34.0478C34.7171 34.0493 34.6511 34.0373 34.5897 34.0123C34.5282 33.9875 34.4724 33.9504 34.4259 33.9033C34.3792 33.8562 34.3425 33.8001 34.3183 33.7383C34.294 33.6767 34.2826 33.6105 34.2847 33.5444C34.2823 33.2258 34.4971 32.9892 34.7875 32.9907C34.8539 32.9868 34.9204 32.9969 34.9826 33.0206C35.0448 33.0444 35.1012 33.0811 35.1481 33.1285C35.1949 33.1756 35.2311 33.2324 35.2542 33.2948C35.2775 33.3572 35.287 33.4238 35.2825 33.4902C35.2788 33.8637 35.0149 34.0677 34.7834 34.048V34.0478Z" fill="white"/>
<path d="M29.8984 30.5549C29.3646 30.5425 28.8448 30.993 28.836 31.6304C28.8283 32.1841 29.345 32.6702 29.9223 32.6738C30.4831 32.6772 30.9603 32.1908 30.9633 31.6123C30.9661 31.0422 30.4822 30.5686 29.8984 30.5549ZM29.8799 32.1422C29.815 32.1419 29.7509 32.1288 29.6913 32.1034C29.6315 32.0782 29.5775 32.0412 29.5324 31.9947C29.4871 31.9483 29.4517 31.8933 29.4282 31.8329C29.4044 31.7726 29.3931 31.7081 29.3946 31.6434C29.3946 31.3433 29.6385 31.0814 29.919 31.0791C30.0494 31.0788 30.1746 31.1299 30.2679 31.2213C30.3609 31.3125 30.4145 31.4368 30.4169 31.5672C30.4154 31.8677 30.1603 32.1408 29.8799 32.1422Z" fill="white"/>
<path d="M29.2676 30.1757C29.227 30.1277 29.1833 30.0826 29.1366 30.0407C29.0476 29.9729 28.9812 29.8798 28.9459 29.7738C28.8802 29.6075 28.7706 29.4621 28.6288 29.3534C28.3075 29.0825 27.9486 29.0118 27.5644 29.1798C27.3757 29.2542 27.213 29.3824 27.0964 29.5484C26.9797 29.7144 26.9143 29.9109 26.9081 30.1136C26.8676 30.7653 27.4955 31.3217 28.1429 31.2208C28.2617 31.2132 28.3748 31.167 28.4649 31.0891C28.4191 31.0166 28.376 30.9484 28.3322 30.8801C28.2862 30.8083 28.2394 30.7368 28.1981 30.6732C28.1037 30.6902 28.0081 30.6993 27.9122 30.7005C27.8449 30.6959 27.7792 30.6777 27.7191 30.6471C27.6591 30.6164 27.6059 30.5737 27.563 30.5218C27.52 30.4697 27.4881 30.4095 27.4692 30.3448C27.4504 30.2801 27.4449 30.2121 27.4532 30.1452C27.4894 29.8505 27.7717 29.6192 28.0503 29.6563C28.1689 29.6751 28.2785 29.7316 28.3624 29.8175C28.4464 29.9034 28.5006 30.0139 28.5168 30.133C28.5181 30.182 28.5331 30.2298 28.5604 30.2707C28.6668 30.3778 28.7837 30.4744 28.9038 30.5813L29.2676 30.1757Z" fill="white"/>
<path d="M52.7085 13.9454C52.6497 13.9313 52.5948 13.9038 52.5483 13.8648C52.457 13.7835 52.3995 13.6709 52.3869 13.5491C52.3745 13.4275 52.4081 13.3055 52.481 13.2072C52.4958 13.1875 52.5092 13.1668 52.5229 13.147L52.3556 12.6716C52.1252 12.8458 51.9682 13.0411 51.9517 13.3203C51.9317 13.6278 52.0314 13.931 52.23 14.1666C52.4137 14.3916 52.6612 14.4697 52.9708 14.4476C52.922 14.3056 52.8757 14.1879 52.8422 14.0669C52.8356 14.0352 52.8189 14.0064 52.7949 13.9846C52.771 13.9627 52.7406 13.949 52.7085 13.9454Z" fill="white"/>
<path d="M39.8645 20.1016C39.6783 19.9979 39.4866 19.9046 39.2903 19.8216C39.1944 19.7785 39.0914 19.7507 38.9818 19.7125C38.988 19.6061 38.9957 19.5053 38.9993 19.4043C39.0065 19.1953 38.9096 19.0962 38.7023 19.0829C38.5756 19.0776 38.4497 19.0615 38.3257 19.0346C37.7619 18.8992 37.2955 18.5865 36.865 18.213C36.7911 18.1488 36.7852 18.097 36.843 17.9976C36.9606 17.7958 37.0721 17.5889 37.2064 17.3987C37.6746 16.7509 38.2167 16.1598 38.8216 15.6374C39.2064 15.2967 39.6051 14.9727 40.0702 14.7425C40.1063 14.7238 40.1392 14.6996 40.1678 14.6708C40.3737 14.4669 40.5814 14.2641 40.7822 14.0554C40.8224 14.0177 40.8549 13.9725 40.8777 13.9222C40.9004 13.872 40.9131 13.8177 40.9147 13.7626C40.9164 13.7075 40.9072 13.6526 40.8876 13.601C40.868 13.5495 40.8384 13.5023 40.8004 13.4622C40.5752 13.2204 40.341 12.9863 40.1001 12.7605C40.0197 12.6836 39.9124 12.6413 39.8013 12.6429C39.69 12.6444 39.584 12.6895 39.5057 12.7687C39.4679 12.8025 39.4329 12.8399 39.397 12.8758C38.164 14.1095 36.9308 15.3434 35.6977 16.5775C35.6699 16.6133 35.635 16.6431 35.5952 16.6648C35.5553 16.6866 35.5113 16.7 35.4661 16.704C35.3374 16.7129 35.2174 16.7718 35.1314 16.8679C34.7682 17.2311 34.4025 17.592 34.0426 17.9584C33.9876 18.0102 33.9438 18.0726 33.9136 18.142C33.8834 18.2113 33.8676 18.286 33.8672 18.3615C33.8668 18.437 33.8817 18.5119 33.9111 18.5816C33.9405 18.6513 33.9837 18.7142 34.0381 18.7665C34.2701 19.009 34.5104 19.2437 34.7493 19.4794C34.8047 19.54 34.8741 19.5861 34.9515 19.6139C35.0288 19.6415 35.1117 19.6499 35.1931 19.6383C35.3408 19.6138 35.408 19.6798 35.4653 19.8029C35.4106 19.827 35.3604 19.8497 35.3096 19.871C35.0721 19.9628 34.8509 20.092 34.6541 20.2535C34.5328 20.3509 34.4355 20.4747 34.3695 20.6157C34.3037 20.7565 34.271 20.9106 34.2738 21.0662C34.2776 22.7039 34.2753 24.3415 34.276 25.9791C34.2748 26.0349 34.28 26.0909 34.2917 26.1455C34.3035 26.1912 34.3276 26.2328 34.3616 26.2657C34.3955 26.2985 34.4378 26.3215 34.4838 26.3321C34.5297 26.3427 34.5778 26.3404 34.6227 26.3256C34.6674 26.3108 34.7074 26.2838 34.738 26.248C34.788 26.1892 34.8128 26.1132 34.807 26.0363C34.8059 25.7872 34.8059 25.538 34.807 25.2888C34.807 25.246 34.8142 25.203 34.8193 25.1483C34.8521 25.16 34.8844 25.1733 34.9159 25.1881C35.2642 25.368 35.6364 25.4973 36.0212 25.5717C36.0609 25.5808 36.1013 25.5858 36.1419 25.5866C36.2034 25.5882 36.2635 25.5679 36.3116 25.5294C36.3595 25.4907 36.3923 25.4364 36.404 25.3761C36.4157 25.3156 36.4057 25.253 36.3755 25.1994C36.3454 25.1456 36.2974 25.1043 36.2397 25.0827C36.183 25.0613 36.1206 25.0559 36.0628 25.0373C35.8067 24.9554 35.5477 24.8806 35.2973 24.7838C35.1769 24.7297 35.0645 24.6594 34.9631 24.5746C34.9098 24.535 34.8674 24.4825 34.8397 24.4222C34.8121 24.3618 34.8001 24.2954 34.8047 24.2291C34.8112 23.9851 34.806 23.7409 34.8073 23.4968C34.8101 23.4571 34.8155 23.4178 34.8235 23.3789C34.9844 23.4577 35.1263 23.5367 35.2755 23.5984C35.9389 23.8736 36.6354 23.9678 37.3483 23.9678C37.3687 23.9683 37.3889 23.9671 37.4091 23.9641C37.4571 23.9566 37.5021 23.9359 37.5389 23.904C37.5756 23.8722 37.6025 23.8306 37.6165 23.784C37.6317 23.7406 37.6343 23.6936 37.6241 23.6486C37.6138 23.6037 37.5913 23.5626 37.5587 23.53C37.5306 23.5006 37.4968 23.4774 37.459 23.4623C37.4213 23.4473 37.3807 23.4406 37.3402 23.4426C37.0865 23.4285 36.8323 23.4171 36.5798 23.3903C36.1947 23.3521 35.8174 23.2567 35.4604 23.1074C35.2854 23.0374 35.1232 22.9386 34.9809 22.8149C34.937 22.7836 34.8999 22.744 34.8714 22.6983C34.8431 22.6526 34.8239 22.6017 34.8152 22.5486C34.804 22.323 34.8118 22.0964 34.8118 21.8463C34.9445 21.9154 35.0527 21.9782 35.1662 22.0298C35.2815 22.0824 35.4003 22.1278 35.5204 22.1696C35.6355 22.2098 35.7524 22.2454 35.8706 22.2752C35.9937 22.3064 36.1187 22.3302 36.2438 22.3522C36.3687 22.3741 36.4946 22.3927 36.6207 22.4068C36.7469 22.4209 36.8737 22.431 37.0005 22.4377C37.1224 22.444 37.2446 22.4454 37.3665 22.4454C37.4937 22.4454 37.6209 22.4439 37.7478 22.4377C37.8747 22.4313 38.0014 22.4209 38.1276 22.4064C38.2538 22.392 38.3793 22.3724 38.5041 22.3498C38.6291 22.3272 38.7539 22.3021 38.8767 22.271C38.9949 22.2412 39.1122 22.2067 39.227 22.166C39.3466 22.124 39.4645 22.0758 39.5799 22.0232C39.692 21.9721 39.8001 21.9122 39.9124 21.8547C39.9189 21.871 39.9238 21.8879 39.9274 21.905C39.9283 22.3729 39.929 22.8407 39.9295 23.3086C39.9299 23.3598 39.9199 23.4106 39.8997 23.4577C39.8798 23.5048 39.8502 23.5474 39.8131 23.5826C39.7375 23.6577 39.6549 23.7254 39.5665 23.7847C39.3675 23.9083 39.1514 24.0018 38.9252 24.0626C38.8278 24.0912 38.7286 24.114 38.6312 24.1427C38.5811 24.1538 38.5356 24.1802 38.501 24.2182C38.4666 24.2563 38.4446 24.3041 38.4383 24.355C38.4305 24.3992 38.4342 24.4446 38.449 24.4869C38.4638 24.5292 38.4893 24.5669 38.523 24.5965C38.5567 24.626 38.5975 24.6464 38.6413 24.6556C38.6852 24.6647 38.7306 24.6625 38.7735 24.6489C39.1324 24.5742 39.4778 24.4445 39.797 24.2641C39.8331 24.2431 39.8724 24.2273 39.9303 24.1992V25.9643C39.9285 26.0151 39.9302 26.066 39.9352 26.1166C39.9437 26.1789 39.9749 26.2362 40.0224 26.2774C40.0701 26.3185 40.1311 26.341 40.194 26.3405C40.2571 26.3401 40.3177 26.3167 40.3647 26.2748C40.4118 26.2329 40.442 26.1753 40.4497 26.1128C40.4546 26.0571 40.4561 26.0011 40.4542 25.9452V22.4512C40.4542 21.9731 40.4508 21.4952 40.4555 21.0171C40.4585 20.8998 40.4376 20.7831 40.3943 20.6741C40.3507 20.565 40.2857 20.466 40.2029 20.3829C40.1029 20.2746 39.9891 20.1801 39.8645 20.1016ZM38.4377 19.6014C38.4409 19.6413 38.4407 19.6813 38.4367 19.7211C38.3625 20.1185 38.1648 20.4826 37.8719 20.7613C37.8426 20.7925 37.8069 20.8168 37.7673 20.8331C37.7276 20.8491 37.685 20.8566 37.6423 20.8549C37.3281 20.8494 37.0136 20.8528 36.6839 20.8528C36.4835 20.281 36.17 19.7552 35.762 19.307L36.4829 18.5872C37.0445 19.0697 37.6677 19.4684 38.4377 19.6014ZM39.842 13.2359C39.9647 13.3603 40.1001 13.4975 40.2354 13.6351C40.2671 13.6674 40.2974 13.7011 40.3355 13.7419C40.3087 13.775 40.2863 13.8072 40.2597 13.8351C40.0278 14.0908 39.7591 14.3105 39.4625 14.4872C39.0595 14.7161 38.7102 15.0244 38.3675 15.3359C37.798 15.8443 37.2817 16.4091 36.8262 17.0217C36.7279 17.1564 36.6365 17.2961 36.5502 17.4218C36.3934 17.2658 36.2401 17.1137 36.1015 16.9759L39.842 13.2359ZM35.1361 19.1203C34.8886 18.8765 34.639 18.6287 34.4073 18.3892C34.7975 17.9994 35.173 17.624 35.5537 17.2434C35.8163 17.4662 36.0607 17.7096 36.2847 17.9714C36.2281 18.0739 35.276 19.0315 35.1361 19.1206V19.1203ZM39.868 21.1533C39.793 21.2488 39.7048 21.3333 39.6061 21.4039C39.3514 21.5735 39.0665 21.6922 38.767 21.754C37.7159 21.9982 36.6715 21.9905 35.6388 21.6537C35.4245 21.5873 35.2237 21.4835 35.0456 21.3471C34.7342 21.1026 34.7299 20.8733 35.0362 20.6279C35.2555 20.4613 35.5055 20.34 35.772 20.2711C35.7906 20.2694 35.8094 20.2701 35.8277 20.2735C35.9435 20.4469 36.037 20.6342 36.106 20.831C36.0566 20.8439 36.0184 20.8514 35.9819 20.8641C35.926 20.883 35.8779 20.9194 35.8447 20.968C35.8114 21.0167 35.7949 21.0748 35.7974 21.1336C35.8035 21.1948 35.8304 21.2522 35.8739 21.2958C35.9174 21.3394 35.9745 21.3664 36.0359 21.3726C36.0814 21.3764 36.1273 21.3776 36.173 21.3763H38.5676C38.6134 21.3779 38.6591 21.3764 38.7047 21.3722C38.7681 21.3645 38.8264 21.3336 38.8687 21.2855C38.9108 21.2375 38.9338 21.1756 38.9334 21.1117C38.9328 21.0478 38.9089 20.9864 38.866 20.939C38.8231 20.8916 38.7642 20.8616 38.7007 20.8548C38.6474 20.8484 38.5935 20.847 38.528 20.8425L38.8589 20.2358C39.1867 20.3331 39.504 20.4492 39.7635 20.6837C39.8045 20.7217 39.8406 20.7645 39.8709 20.8116C39.909 20.8606 39.9296 20.9209 39.929 20.9831C39.9285 21.0452 39.907 21.1054 39.868 21.1536V21.1533Z" fill="white"/>
<path d="M40.7932 19.017C40.6571 19.003 40.52 19.0034 40.3841 19.0185C40.3203 19.0261 40.2617 19.0574 40.2196 19.106C40.1775 19.1545 40.1549 19.2171 40.1563 19.2812C40.1597 19.348 40.1876 19.4111 40.2347 19.4585C40.282 19.5058 40.345 19.534 40.4117 19.5375C40.4722 19.5424 40.5334 19.5383 40.5945 19.5383C40.6502 19.5383 40.7062 19.5412 40.7619 19.5378C40.8284 19.5362 40.892 19.5103 40.9404 19.4646C40.9889 19.419 41.0188 19.357 41.0243 19.2907C41.029 19.224 41.0074 19.158 40.9642 19.1069C40.9211 19.0557 40.8597 19.0235 40.7932 19.017Z" fill="white"/>
<path d="M38.8268 17.0605C38.7599 17.0547 38.6935 17.0756 38.6422 17.1188C38.5908 17.1619 38.5587 17.2237 38.5529 17.2904C38.5378 17.4213 38.5371 17.5534 38.5507 17.6843C38.5529 17.7187 38.5621 17.7522 38.5776 17.783C38.5931 17.8139 38.6147 17.8412 38.6409 17.8634C38.6673 17.8857 38.6979 17.9023 38.7309 17.9125C38.7637 17.9226 38.7984 17.926 38.8327 17.9223C38.8991 17.9165 38.9609 17.8861 39.0057 17.8367C39.0506 17.7874 39.0751 17.7229 39.0747 17.6563C39.0778 17.6006 39.0751 17.5448 39.0751 17.489C39.0751 17.4332 39.0781 17.3773 39.0746 17.3217C39.0732 17.2551 39.0471 17.1914 39.0012 17.1432C38.9554 17.0949 38.8932 17.0653 38.8268 17.0605Z" fill="white"/>
<path d="M40.1742 17.6279C40.1422 17.6305 40.1113 17.6404 40.0837 17.6566C39.9548 17.7692 39.8339 17.8907 39.7218 18.0201C39.6497 18.1095 39.6871 18.2434 39.7717 18.3237C39.8122 18.3671 39.8673 18.3939 39.9266 18.399C39.9856 18.4041 40.0445 18.387 40.0917 18.3512C40.2045 18.257 40.3093 18.1535 40.4046 18.0416C40.4362 18.0041 40.4548 17.9574 40.4577 17.9085C40.4606 17.8596 40.4477 17.8111 40.4209 17.77C40.3972 17.7256 40.3615 17.6886 40.3178 17.6635C40.2743 17.6384 40.2245 17.626 40.1742 17.6279Z" fill="white"/>
<path d="M46.8124 19.3567C46.7934 19.3566 46.7745 19.3605 46.7572 19.3684C46.7398 19.3763 46.7244 19.3877 46.712 19.4021C46.6995 19.4165 46.6903 19.4334 46.685 19.4516C46.6796 19.4699 46.6783 19.4891 46.6811 19.5079C46.681 19.5256 46.6845 19.5431 46.6914 19.5593C46.6984 19.5757 46.7086 19.5904 46.7213 19.6025C46.7343 19.6146 46.7494 19.6241 46.7662 19.63C46.7828 19.6361 46.8005 19.6386 46.8181 19.6375C46.8359 19.6363 46.8531 19.6317 46.869 19.6238C46.8848 19.616 46.8989 19.6052 46.9106 19.5918C46.9222 19.5784 46.931 19.5629 46.9367 19.5461C46.9422 19.5293 46.9443 19.5117 46.943 19.4941C46.9437 19.4764 46.9408 19.4588 46.9346 19.4422C46.9284 19.4257 46.9189 19.4106 46.9068 19.3977C46.8945 19.3849 46.8799 19.3747 46.8638 19.3677C46.8476 19.3605 46.8301 19.3568 46.8124 19.3567Z" fill="white"/>
<path d="M28.1887 18.2251C28.2241 18.2251 28.2581 18.2114 28.2835 18.1867C28.3088 18.1621 28.3237 18.1285 28.3248 18.0931C28.3211 18.0607 28.3066 18.0303 28.2837 18.0072C28.2608 17.9839 28.2306 17.9693 28.1981 17.9653C28.1807 17.9653 28.1633 17.9687 28.1471 17.9753C28.1309 17.982 28.1161 17.9918 28.1037 18.0043C28.0912 18.0165 28.0814 18.0313 28.0746 18.0474C28.0678 18.0636 28.0645 18.081 28.0645 18.0986C28.0657 18.1313 28.0791 18.1625 28.1021 18.1859C28.1251 18.2093 28.156 18.2233 28.1887 18.2251Z" fill="white"/>
<path d="M31.2303 26.3806C31.195 26.3805 31.161 26.3942 31.1355 26.4186C31.11 26.4431 31.0952 26.4765 31.0938 26.5118C31.0976 26.5441 31.1121 26.5742 31.1349 26.5975C31.1578 26.6208 31.1877 26.6359 31.2198 26.6404C31.2551 26.64 31.2889 26.6259 31.3138 26.6008C31.3387 26.5758 31.353 26.5419 31.3531 26.5067C31.3528 26.4738 31.3397 26.4425 31.3169 26.4191C31.294 26.3956 31.263 26.3819 31.2303 26.3806Z" fill="white"/>
<path d="M28.3266 20.9507C28.3256 20.9163 28.3108 20.8836 28.2857 20.8599C28.2606 20.8362 28.227 20.8235 28.1925 20.8245C28.1581 20.8256 28.1254 20.8403 28.1017 20.8654C28.0781 20.8905 28.0653 20.9241 28.0663 20.9586C28.0668 20.9757 28.0706 20.9925 28.0777 21.0081C28.0847 21.0236 28.0948 21.0377 28.1072 21.0495C28.1196 21.0612 28.1344 21.0703 28.1503 21.0764C28.1663 21.0825 28.1833 21.0853 28.2004 21.0849C28.2175 21.0843 28.2342 21.0805 28.2499 21.0734C28.2655 21.0664 28.2795 21.0564 28.2912 21.044C28.3029 21.0315 28.3121 21.0169 28.3181 21.0009C28.3242 20.9849 28.3272 20.9679 28.3266 20.9507Z" fill="white"/>
<path d="M44.1942 25.8735C44.159 25.8761 44.1261 25.8917 44.1017 25.9173C44.0773 25.9428 44.0633 25.9765 44.0625 26.0119C44.0653 26.0446 44.0803 26.0752 44.1045 26.0975C44.1288 26.1196 44.1604 26.132 44.1934 26.1322C44.2262 26.1327 44.258 26.1205 44.2821 26.0982C44.3062 26.0758 44.3207 26.0449 44.3226 26.0122C44.3238 25.9768 44.311 25.9422 44.287 25.9164C44.2629 25.8903 44.2296 25.8749 44.1942 25.8735Z" fill="white"/>
<path d="M44.6752 25.3414C44.6424 25.3404 44.6106 25.3521 44.586 25.3737C44.5615 25.3955 44.5461 25.4258 44.5432 25.4584C44.5413 25.4937 44.5534 25.5282 44.5767 25.5547C44.6001 25.5813 44.6328 25.5976 44.6681 25.6003C44.7007 25.5987 44.7318 25.586 44.7562 25.5643C44.7808 25.5425 44.797 25.513 44.8024 25.4808C44.8033 25.4456 44.7907 25.4115 44.767 25.3854C44.7431 25.3594 44.7103 25.3436 44.6752 25.3414Z" fill="white"/>
<path d="M32.3484 11.7877C32.3811 11.7856 32.412 11.7719 32.4354 11.7489C32.4588 11.7261 32.4734 11.6955 32.4762 11.6629C32.4753 11.6277 32.4611 11.5939 32.4363 11.5687C32.4116 11.5436 32.3783 11.5287 32.3431 11.5271C32.3105 11.5295 32.2797 11.5436 32.2566 11.5667C32.2335 11.5899 32.2194 11.6205 32.2168 11.6532C32.2164 11.6707 32.2194 11.6882 32.2259 11.7045C32.2322 11.7209 32.2418 11.7358 32.2541 11.7484C32.2665 11.7609 32.2811 11.7709 32.2972 11.7776C32.3134 11.7843 32.3309 11.7879 32.3484 11.7877Z" fill="white"/>
<path d="M33.6132 27.9366C33.5805 27.9391 33.5501 27.954 33.5282 27.9786C33.5063 28.003 33.4949 28.035 33.4962 28.0678C33.4982 28.1006 33.512 28.1313 33.535 28.1547C33.5581 28.178 33.5887 28.1921 33.6214 28.1943C33.6565 28.1927 33.6898 28.1777 33.7146 28.1527C33.7395 28.1278 33.754 28.0945 33.7555 28.0594C33.7526 28.0244 33.7359 27.992 33.7094 27.969C33.6829 27.946 33.6482 27.9343 33.6132 27.9366Z" fill="white"/>
<path d="M41.9193 27.6086C41.8863 27.6101 41.855 27.624 41.832 27.6477C41.8089 27.6713 41.7957 27.7028 41.795 27.7358C41.7942 27.7688 41.8062 27.801 41.8284 27.8255C41.8504 27.8501 41.881 27.8655 41.9138 27.8683C41.9492 27.8697 41.9838 27.8573 42.0102 27.8336C42.0365 27.8099 42.0527 27.777 42.0551 27.7416C42.0536 27.7064 42.0386 27.6731 42.0134 27.6484C41.9882 27.6237 41.9546 27.6095 41.9193 27.6086Z" fill="white"/>
<path d="M35.6805 28.58C35.6477 28.5782 35.6154 28.5889 35.5901 28.6099C35.5649 28.6309 35.5485 28.6607 35.5442 28.6933C35.5408 28.7192 35.5454 28.7456 35.5573 28.7689C35.569 28.7923 35.5876 28.8116 35.6106 28.8242C35.6334 28.8367 35.6597 28.8422 35.6858 28.8397C35.7118 28.8373 35.7365 28.827 35.7567 28.8102C35.7767 28.7935 35.7914 28.7711 35.7986 28.7459C35.8058 28.7208 35.8052 28.694 35.797 28.6692C35.7888 28.6443 35.7733 28.6225 35.7526 28.6065C35.7317 28.5906 35.7066 28.5814 35.6805 28.58Z" fill="white"/>
<path d="M34.267 10.833C34.2995 10.829 34.3295 10.8145 34.3529 10.7918C34.3762 10.7691 34.3916 10.7392 34.3962 10.707C34.3959 10.6717 34.382 10.6378 34.357 10.6127C34.3322 10.5876 34.2985 10.5732 34.2632 10.5725C34.2456 10.5727 34.2284 10.5766 34.2125 10.5838C34.1964 10.591 34.1821 10.6013 34.1703 10.6143C34.1584 10.6272 34.1494 10.6425 34.1436 10.659C34.138 10.6756 34.1356 10.6931 34.1369 10.7106C34.1407 10.743 34.1558 10.7732 34.1796 10.7956C34.2034 10.818 34.2345 10.8313 34.267 10.833Z" fill="white"/>
<path d="M37.7807 10.2836C37.8159 10.2834 37.8496 10.269 37.8744 10.244C37.8994 10.2189 37.9132 10.1851 37.9134 10.1498C37.9128 10.1323 37.9088 10.1151 37.9015 10.0992C37.8942 10.0832 37.8837 10.069 37.8706 10.0573C37.8577 10.0456 37.8426 10.0366 37.8259 10.0309C37.8094 10.0251 37.7919 10.0227 37.7744 10.024C37.742 10.0281 37.7121 10.0436 37.6901 10.0677C37.6681 10.0918 37.6553 10.123 37.6543 10.1557C37.6578 10.1882 37.6723 10.2185 37.6952 10.2416C37.7182 10.2649 37.7484 10.2797 37.7807 10.2836Z" fill="white"/>
<path d="M29.0674 23.5474C29.0317 23.5467 28.9973 23.5601 28.9712 23.5843C28.9452 23.6086 28.9296 23.642 28.9277 23.6776C28.9298 23.7106 28.9435 23.7417 28.9664 23.7656C28.9892 23.7894 29.0198 23.8043 29.0527 23.8079C29.0867 23.8091 29.12 23.7969 29.1452 23.7739C29.1704 23.7509 29.1857 23.7189 29.1875 23.6847C29.1895 23.6508 29.1779 23.6172 29.1555 23.5915C29.1331 23.5659 29.1013 23.5501 29.0674 23.5474Z" fill="white"/>
<path d="M37.8146 28.7383C37.7818 28.7403 37.7507 28.7535 37.7267 28.7759C37.7027 28.7985 37.6875 28.8285 37.6834 28.8613C37.6828 28.8965 37.6962 28.9306 37.7205 28.9562C37.7447 28.9818 37.7782 28.9968 37.8134 28.998C37.8463 28.998 37.8779 28.9856 37.902 28.9634C37.9261 28.9411 37.9409 28.9105 37.9434 28.8778C37.944 28.8424 37.931 28.8081 37.9069 28.7821C37.8829 28.7562 37.8498 28.7404 37.8146 28.7383Z" fill="white"/>
<path d="M39.217 10.4419C39.2497 10.4388 39.2803 10.4241 39.3032 10.4006C39.326 10.3769 39.3398 10.346 39.3419 10.3132C39.3407 10.2776 39.3257 10.2439 39.3001 10.2194C39.2744 10.1947 39.2403 10.181 39.2047 10.1812C39.1719 10.1837 39.1411 10.1982 39.1186 10.2221C39.0959 10.2459 39.0829 10.2773 39.082 10.3102C39.082 10.3278 39.0854 10.3453 39.0922 10.3615C39.099 10.3777 39.109 10.3924 39.1217 10.4047C39.1342 10.4169 39.1492 10.4265 39.1655 10.433C39.1819 10.4394 39.1995 10.4425 39.217 10.4419Z" fill="white"/>
<path d="M46.1401 22.8799C46.1048 22.8807 46.0713 22.8953 46.0466 22.9205C46.0219 22.9457 46.008 22.9796 46.0078 23.0148C46.0081 23.0477 46.0211 23.0792 46.0441 23.1026C46.0669 23.1261 46.0981 23.1398 46.1309 23.1406C46.1662 23.1409 46.2003 23.1272 46.2256 23.1026C46.2509 23.0779 46.2655 23.0443 46.2663 23.0091C46.2625 22.9765 46.248 22.9463 46.2253 22.9229C46.2024 22.8995 46.1725 22.8844 46.1401 22.8799Z" fill="white"/>
<path d="M46.6523 18.7681C46.6532 18.8009 46.6662 18.8324 46.689 18.8562C46.7119 18.8799 46.7427 18.8944 46.7756 18.8965C46.811 18.8969 46.8451 18.8836 46.8709 18.8593C46.8967 18.835 46.9123 18.8018 46.9141 18.7664C46.9118 18.7336 46.8983 18.7026 46.8756 18.6788C46.8529 18.6551 46.8224 18.64 46.7897 18.6365C46.7543 18.6365 46.7202 18.6502 46.6947 18.6747C46.6691 18.6992 46.6539 18.7327 46.6523 18.7681Z" fill="white"/>
<path d="M42.5604 27.243C42.5262 27.2373 42.4913 27.2454 42.4631 27.2654C42.4349 27.2856 42.4157 27.316 42.41 27.3502C42.4043 27.3844 42.4123 27.4194 42.4325 27.4476C42.4525 27.4758 42.4829 27.4948 42.5172 27.5006C42.5513 27.5063 42.5863 27.4982 42.6145 27.4782C42.6427 27.458 42.6619 27.4276 42.6675 27.3934C42.6732 27.3592 42.6651 27.3243 42.6451 27.296C42.625 27.2678 42.5946 27.2488 42.5604 27.243Z" fill="white"/>
<path d="M46.7847 20.0972C46.7519 20.0994 46.721 20.113 46.6974 20.1354C46.6735 20.1578 46.6584 20.188 46.6545 20.2204C46.6531 20.2464 46.6596 20.2722 46.673 20.2945C46.6864 20.3167 46.7062 20.3345 46.7298 20.3454C46.7533 20.3564 46.7797 20.3599 46.8055 20.3557C46.831 20.3514 46.8549 20.3397 46.8738 20.3218C46.8927 20.3039 46.9058 20.2808 46.9113 20.2554C46.9169 20.23 46.9148 20.2035 46.9052 20.1792C46.8956 20.1551 46.879 20.1344 46.8576 20.1197C46.836 20.1051 46.8106 20.0973 46.7847 20.0972Z" fill="white"/>
<path d="M45.1082 24.7686C45.0735 24.7684 45.0403 24.7818 45.0156 24.8062C44.9909 24.8305 44.9769 24.8636 44.9767 24.8983C44.9765 24.9329 44.9899 24.9663 45.0143 24.9908C45.0386 25.0155 45.0717 25.0295 45.1064 25.0297C45.1391 25.0286 45.1704 25.0156 45.1945 24.9934C45.2185 24.9709 45.2336 24.9406 45.237 24.908C45.2376 24.8726 45.2244 24.8385 45.2005 24.8126C45.1765 24.7866 45.1435 24.7708 45.1082 24.7686Z" fill="white"/>
<path d="M32.9833 27.6133C32.95 27.6151 32.9185 27.6292 32.895 27.6526C32.8714 27.6762 32.8573 27.7076 32.8555 27.7409C32.8548 27.7742 32.8669 27.8066 32.8895 27.8312C32.9122 27.8557 32.9432 27.8705 32.9766 27.8725C32.9944 27.8729 33.012 27.8699 33.0287 27.8635C33.0453 27.8571 33.0605 27.8474 33.0732 27.835C33.0861 27.8227 33.0964 27.8079 33.1034 27.7915C33.1105 27.7752 33.1143 27.7577 33.1146 27.7398C33.1105 27.7069 33.0952 27.6763 33.0713 27.6533C33.0474 27.6302 33.0163 27.6161 32.9833 27.6133Z" fill="white"/>
<path d="M40.619 28.1953C40.5863 28.1973 40.5552 28.2105 40.5314 28.233C40.5076 28.2553 40.4923 28.2854 40.4882 28.3179C40.4873 28.3517 40.4995 28.3846 40.5222 28.4095C40.5449 28.4346 40.5765 28.4497 40.6102 28.452C40.6439 28.4541 40.6772 28.4431 40.703 28.4212C40.7287 28.3994 40.7451 28.3684 40.7484 28.3348C40.7484 28.2995 40.735 28.2654 40.7111 28.2396C40.6871 28.2138 40.6541 28.198 40.619 28.1953Z" fill="white"/>
<path d="M39.2399 28.5774C39.2224 28.5773 39.205 28.5805 39.1889 28.5871C39.1727 28.5939 39.158 28.6038 39.1459 28.6163C39.1336 28.6289 39.124 28.6438 39.1178 28.66C39.1116 28.6764 39.1088 28.6939 39.1095 28.7114C39.1117 28.7439 39.1257 28.7747 39.149 28.7978C39.1721 28.8208 39.2027 28.8348 39.2353 28.837C39.2705 28.835 39.3037 28.82 39.3284 28.7947C39.3529 28.7695 39.367 28.7359 39.368 28.7007C39.3653 28.6681 39.3508 28.6375 39.3272 28.6149C39.3037 28.5922 39.2725 28.5788 39.2399 28.5774Z" fill="white"/>
<path d="M35.6478 10.447C35.6807 10.4464 35.7121 10.4337 35.7358 10.411C35.7597 10.3884 35.7739 10.3577 35.776 10.3248C35.7762 10.2893 35.7626 10.2552 35.7381 10.2294C35.7137 10.2037 35.6803 10.1885 35.6449 10.1868C35.6122 10.1896 35.5814 10.2035 35.5579 10.2264C35.5343 10.2494 35.5194 10.2796 35.5156 10.3123C35.5153 10.3298 35.5185 10.3473 35.525 10.3635C35.5316 10.3798 35.5412 10.3946 35.5536 10.4072C35.5659 10.4197 35.5806 10.4296 35.5966 10.4365C35.6129 10.4433 35.6302 10.4468 35.6478 10.447Z" fill="white"/>
<path d="M41.2575 11.0843C41.2928 11.0832 41.3262 11.0684 41.3509 11.0431C41.3756 11.0177 41.3894 10.9839 41.3897 10.9485C41.3892 10.9313 41.3854 10.9141 41.3784 10.8983C41.3712 10.8824 41.361 10.8681 41.3483 10.8563C41.3358 10.8444 41.3207 10.8353 41.3045 10.8292C41.2883 10.8231 41.2709 10.8204 41.2536 10.8212C41.2362 10.822 41.2192 10.8262 41.2035 10.8336C41.1877 10.841 41.1737 10.8516 41.1622 10.8644C41.1506 10.8774 41.1417 10.8925 41.1361 10.9089C41.1303 10.9254 41.1281 10.9427 41.1292 10.9601C41.132 10.9928 41.1465 11.0234 41.1701 11.0462C41.1936 11.0689 41.2247 11.0826 41.2575 11.0843Z" fill="white"/>
<path d="M32.9466 11.4193C32.9641 11.4207 32.9817 11.4186 32.9985 11.4133C33.0153 11.4078 33.0306 11.3992 33.044 11.3876C33.0574 11.3762 33.0683 11.3622 33.0762 11.3466C33.0841 11.3308 33.0887 11.3137 33.0899 11.2961C33.0907 11.279 33.0882 11.262 33.0822 11.2459C33.0765 11.2299 33.0674 11.2151 33.056 11.2026C33.0444 11.1899 33.0306 11.1797 33.0151 11.1725C32.9997 11.1652 32.983 11.1611 32.9659 11.1603C32.9488 11.1596 32.9318 11.1621 32.9157 11.168C32.8998 11.1738 32.8848 11.1827 32.8723 11.1943C32.8597 11.2057 32.8494 11.2196 32.8422 11.2352C32.835 11.2505 32.8309 11.2673 32.8301 11.2844C32.8297 11.3172 32.8414 11.349 32.8628 11.3739C32.8842 11.3987 32.914 11.415 32.9466 11.4193Z" fill="white"/>
<path d="M31.7615 12.204C31.7942 12.2013 31.8248 12.1875 31.8485 12.1649C31.8721 12.1424 31.8872 12.1123 31.8914 12.0797C31.8915 12.0445 31.8778 12.0106 31.8532 11.9854C31.8285 11.96 31.7949 11.9456 31.7597 11.9451C31.7269 11.9449 31.6954 11.9575 31.6717 11.98C31.648 12.0027 31.6341 12.0336 31.6329 12.0664C31.6323 12.0838 31.6353 12.1013 31.6413 12.1177C31.6474 12.134 31.6569 12.149 31.6687 12.1618C31.6807 12.1747 31.6951 12.185 31.711 12.1921C31.7269 12.1993 31.7442 12.2034 31.7615 12.204Z" fill="white"/>
<path d="M29.3908 14.868C29.4249 14.8677 29.4575 14.854 29.4817 14.8299C29.5058 14.8058 29.5197 14.7732 29.5201 14.7391C29.5205 14.7048 29.5075 14.672 29.484 14.6471C29.4604 14.6226 29.428 14.6081 29.3939 14.6069C29.3593 14.6065 29.3259 14.6199 29.3011 14.644C29.2764 14.6681 29.2621 14.7011 29.2617 14.7358C29.2614 14.7705 29.2747 14.8038 29.2988 14.8286C29.3231 14.8535 29.3561 14.8676 29.3908 14.868Z" fill="white"/>
<path d="M29.0456 15.4996C29.0808 15.4988 29.1144 15.4845 29.1396 15.4597C29.1649 15.4351 29.1797 15.4017 29.1814 15.3665C29.1802 15.3325 29.1657 15.3002 29.1409 15.2768C29.1162 15.2534 29.0832 15.2405 29.0492 15.2412C29.0151 15.2418 28.9827 15.2559 28.9588 15.2803C28.935 15.3046 28.9217 15.3373 28.9219 15.3714C28.9233 15.4041 28.9367 15.4353 28.9594 15.4588C28.9822 15.4825 29.0128 15.4969 29.0456 15.4996Z" fill="white"/>
<path d="M28.7591 16.1525C28.7917 16.1516 28.8229 16.1382 28.846 16.1152C28.8691 16.0922 28.8828 16.0613 28.8839 16.0286C28.8843 15.9934 28.8709 15.9594 28.8464 15.9339C28.822 15.9085 28.7884 15.8937 28.7532 15.8928C28.7208 15.8966 28.6906 15.9112 28.6673 15.934C28.644 15.957 28.6291 15.9872 28.625 16.0195C28.6253 16.0549 28.6395 16.0887 28.6646 16.1135C28.6897 16.1385 28.7237 16.1525 28.7591 16.1525Z" fill="white"/>
<path d="M28.3128 17.5214C28.3303 17.523 28.3479 17.521 28.3645 17.5155C28.3813 17.51 28.3967 17.5013 28.41 17.4897C28.4231 17.4781 28.4339 17.464 28.4415 17.4482C28.4493 17.4323 28.4537 17.4152 28.4545 17.3976C28.4549 17.3801 28.452 17.3626 28.4456 17.3463C28.4393 17.3298 28.4298 17.3148 28.4177 17.3021C28.4054 17.2894 28.3909 17.2793 28.3748 17.2722C28.3588 17.2653 28.3414 17.2615 28.3238 17.2612C28.2911 17.2635 28.2602 17.2774 28.2366 17.3004C28.2131 17.3233 28.1984 17.3539 28.1953 17.3866C28.1955 17.4195 28.2074 17.4511 28.229 17.4759C28.2506 17.5006 28.2804 17.5168 28.3128 17.5214Z" fill="white"/>
<path d="M46.5665 18.0522C46.5686 18.0874 46.5838 18.1204 46.6091 18.1448C46.6343 18.1693 46.6677 18.1835 46.7028 18.1848C46.738 18.1823 46.7707 18.1658 46.7938 18.1393C46.8169 18.1125 46.8286 18.0779 46.8262 18.0427C46.8231 18.0101 46.8076 17.9799 46.7829 17.9583C46.7583 17.9369 46.7262 17.9255 46.6935 17.9269C46.6611 17.9294 46.6304 17.9434 46.6071 17.9664C46.5838 17.9892 46.5696 18.0197 46.5665 18.0522Z" fill="white"/>
<path d="M46.4335 17.3501C46.4336 17.3678 46.4371 17.3854 46.4442 17.4017C46.4511 17.4181 46.4614 17.4328 46.4741 17.445C46.4869 17.4573 46.5021 17.4669 46.5186 17.4732C46.5353 17.4794 46.553 17.4824 46.5707 17.4817C46.6037 17.477 46.6339 17.4604 46.6556 17.4353C46.6773 17.4101 46.6891 17.3779 46.689 17.3445C46.6867 17.3113 46.6718 17.2802 46.6473 17.2578C46.6226 17.2353 46.5903 17.2232 46.557 17.2239C46.5405 17.2236 46.524 17.2267 46.5088 17.2329C46.4935 17.2391 46.4796 17.2486 46.468 17.2603C46.4564 17.2721 46.4474 17.2862 46.4415 17.3016C46.4354 17.3171 46.4329 17.3335 46.4335 17.3501Z" fill="white"/>
<path d="M45.5037 24.167C45.4704 24.1666 45.4381 24.1787 45.4133 24.201C45.3885 24.2231 45.3728 24.254 45.3697 24.2872C45.3684 24.3045 45.3706 24.3218 45.3762 24.3382C45.3816 24.3547 45.3904 24.3699 45.4019 24.3828C45.4134 24.3959 45.4274 24.4065 45.443 24.4138C45.4587 24.4213 45.4756 24.4256 45.493 24.4263C45.5103 24.4272 45.5277 24.4244 45.5439 24.4185C45.5602 24.4124 45.575 24.4031 45.5876 24.3912C45.6003 24.3794 45.6103 24.365 45.6174 24.3492C45.6243 24.3333 45.6281 24.3162 45.6284 24.2989C45.6268 24.2656 45.6133 24.2341 45.5904 24.2099C45.5676 24.1858 45.5368 24.1705 45.5037 24.167Z" fill="white"/>
<path d="M33.6051 11.0985C33.6295 11.0969 33.6529 11.0886 33.6727 11.0741C33.6924 11.0597 33.7076 11.0398 33.7164 11.017C33.725 10.9941 33.7271 10.9693 33.722 10.9453C33.7169 10.9215 33.7051 10.8995 33.6879 10.8821C33.6707 10.8648 33.6488 10.8527 33.625 10.8474C33.6012 10.8422 33.5762 10.8439 33.5533 10.8524C33.5304 10.8608 33.5103 10.8758 33.4958 10.8954C33.4811 10.915 33.4724 10.9384 33.4707 10.9628C33.4707 10.9804 33.4741 10.9981 33.4807 11.0146C33.4875 11.0309 33.4972 11.0459 33.5098 11.0586C33.5223 11.0711 33.5371 11.0811 33.5535 11.088C33.5698 11.0949 33.5875 11.0983 33.6051 11.0985Z" fill="white"/>
<path d="M45.4927 14.8346C45.5258 14.8319 45.5569 14.8166 45.5792 14.7918C45.6016 14.7671 45.6136 14.7347 45.6127 14.7014C45.6119 14.668 45.5985 14.6363 45.5748 14.6126C45.5514 14.5889 45.5196 14.5752 45.4864 14.5742C45.4693 14.5745 45.4524 14.5783 45.4367 14.5852C45.4211 14.5921 45.4071 14.6021 45.3953 14.6146C45.3834 14.627 45.3742 14.6415 45.368 14.6574C45.3618 14.6734 45.3589 14.6904 45.3594 14.7075C45.3597 14.7247 45.3635 14.7413 45.3704 14.7571C45.3773 14.7726 45.3874 14.7869 45.3998 14.7986C45.412 14.8104 45.4267 14.8197 45.4426 14.8258C45.4586 14.8319 45.4756 14.8348 45.4927 14.8346Z" fill="white"/>
<path d="M29.7836 14.2627C29.817 14.2619 29.8487 14.2482 29.8726 14.2248C29.8963 14.2014 29.9102 14.1698 29.9115 14.1363C29.9108 14.1186 29.9066 14.1012 29.8992 14.085C29.8918 14.0689 29.8812 14.0544 29.8682 14.0423C29.8551 14.0303 29.8399 14.0208 29.8231 14.0148C29.8064 14.0086 29.7888 14.0057 29.771 14.0065C29.7378 14.0096 29.7069 14.0252 29.6849 14.0503C29.6629 14.0753 29.6512 14.1079 29.6524 14.1413C29.6544 14.1746 29.6692 14.2057 29.6936 14.2283C29.718 14.2509 29.7503 14.2633 29.7836 14.2627Z" fill="white"/>
<path d="M30.6885 13.1581C30.7213 13.1583 30.7532 13.1465 30.7777 13.1246C30.8023 13.1028 30.8178 13.0726 30.8212 13.0399C30.8229 13.0046 30.8109 12.9701 30.7876 12.9434C30.7642 12.9169 30.7315 12.9004 30.6964 12.8977C30.6621 12.8972 30.6292 12.9103 30.6046 12.9338C30.5799 12.9575 30.5655 12.9898 30.5645 13.0239C30.5635 13.0581 30.5759 13.0912 30.5991 13.1165C30.6222 13.1414 30.6543 13.1564 30.6885 13.1581Z" fill="white"/>
<path d="M30.2375 25.3474C30.2199 25.3473 30.2024 25.3508 30.1861 25.3577C30.1698 25.3646 30.155 25.3746 30.1428 25.3873C30.1304 25.3999 30.1208 25.415 30.1143 25.4315C30.1079 25.448 30.105 25.4656 30.1055 25.4832C30.1069 25.5162 30.121 25.5475 30.1449 25.5707C30.1686 25.5936 30.2004 25.6066 30.2334 25.6069C30.2666 25.6049 30.2978 25.5908 30.3212 25.5673C30.3444 25.5437 30.3584 25.5124 30.3602 25.4793C30.3591 25.4461 30.3461 25.4145 30.3237 25.3903C30.3011 25.366 30.2705 25.3508 30.2375 25.3474Z" fill="white"/>
<path d="M43.1001 12.1792C43.1174 12.18 43.1347 12.1774 43.151 12.1714C43.1672 12.1655 43.1822 12.1564 43.1949 12.1447C43.2076 12.1329 43.2177 12.1187 43.2249 12.1029C43.2321 12.0871 43.2359 12.07 43.2365 12.0527C43.2369 12.0354 43.2338 12.0182 43.2274 12.0021C43.2212 11.986 43.2118 11.9713 43.1997 11.9589C43.1877 11.9464 43.1732 11.9365 43.1572 11.9297C43.1413 11.9231 43.1242 11.9196 43.1069 11.9194C43.0736 11.9204 43.0419 11.9341 43.0184 11.9577C42.9949 11.9812 42.9814 12.0129 42.9805 12.0461C42.9797 12.0795 42.9915 12.1118 43.0138 12.1365C43.0361 12.1613 43.067 12.1765 43.1001 12.1792Z" fill="white"/>
<path d="M31.7865 26.8375C31.7687 26.8367 31.751 26.8395 31.7343 26.8457C31.7175 26.8519 31.7023 26.8615 31.6895 26.8738C31.6765 26.8861 31.6662 26.9007 31.6592 26.9171C31.6522 26.9333 31.6486 26.9511 31.6484 26.9688C31.6514 27.002 31.6659 27.033 31.6896 27.0563C31.7133 27.0797 31.7445 27.0938 31.7776 27.0962C31.8109 27.0948 31.8425 27.0811 31.8662 27.0578C31.8899 27.0344 31.904 27.0031 31.906 26.9698C31.9074 26.9365 31.8957 26.904 31.8732 26.8793C31.8509 26.8546 31.8198 26.8395 31.7865 26.8375Z" fill="white"/>
<path d="M41.9123 11.3988C41.9453 11.3958 41.9759 11.3806 41.9982 11.3561C42.0205 11.3317 42.0329 11.2997 42.0328 11.2665C42.0307 11.2332 42.016 11.2021 41.9915 11.1794C41.9671 11.1567 41.9349 11.1443 41.9015 11.1445C41.8681 11.1451 41.8362 11.1584 41.8124 11.1816C41.7885 11.205 41.7747 11.2366 41.7734 11.2699C41.7737 11.2877 41.7777 11.305 41.785 11.3212C41.7921 11.3373 41.8025 11.3518 41.8155 11.364C41.8284 11.376 41.8437 11.3853 41.8603 11.3912C41.8769 11.3973 41.8947 11.3998 41.9123 11.3988Z" fill="white"/>
<path d="M34.9815 28.4206C34.9483 28.4188 34.9157 28.4296 34.8902 28.4509C34.8647 28.4721 34.8482 28.5021 34.8438 28.5351C34.8427 28.5709 34.8555 28.6058 34.8799 28.6321C34.9042 28.6584 34.9379 28.674 34.9737 28.6756C35.0068 28.6739 35.0382 28.6604 35.0621 28.6374C35.0861 28.6145 35.101 28.5838 35.1043 28.5508C35.1042 28.5175 35.0913 28.4855 35.0686 28.4614C35.0458 28.4373 35.0146 28.4226 34.9815 28.4206Z" fill="white"/>
<path d="M28.081 19.6559C28.1148 19.6561 28.1475 19.6431 28.1719 19.6197C28.1965 19.5961 28.2108 19.5641 28.2121 19.5301C28.2134 19.4963 28.2014 19.4633 28.1787 19.438C28.156 19.4128 28.1244 19.3974 28.0907 19.395C28.0578 19.3947 28.0261 19.4064 28.0016 19.4282C27.9769 19.4496 27.9612 19.4796 27.9573 19.5122C27.9554 19.5475 27.9671 19.582 27.9901 19.609C28.0133 19.6358 28.0457 19.6525 28.081 19.6559Z" fill="white"/>
<path d="M39.916 10.6001C39.949 10.5973 39.9801 10.5824 40.0031 10.5582C40.0259 10.5341 40.0392 10.5025 40.0403 10.4694C40.037 10.4364 40.0221 10.4055 39.9981 10.3825C39.9741 10.3594 39.9428 10.3457 39.9097 10.3438C39.8919 10.3439 39.8744 10.3477 39.8582 10.355C39.8419 10.3622 39.8273 10.3728 39.8153 10.3858C39.8034 10.3989 39.7942 10.4144 39.7884 10.4312C39.7826 10.448 39.7802 10.4657 39.7816 10.4835C39.7842 10.5166 39.7998 10.5475 39.8249 10.5694C39.85 10.5911 39.8828 10.6021 39.916 10.6001Z" fill="white"/>
<path d="M36.3628 10.3383C36.3961 10.3357 36.4271 10.3203 36.4493 10.2952C36.4714 10.2702 36.4831 10.2378 36.4817 10.2044C36.4806 10.1709 36.4663 10.1395 36.4421 10.1165C36.4178 10.0935 36.3855 10.0811 36.3523 10.0818C36.319 10.0835 36.2875 10.097 36.2638 10.1202C36.2399 10.1432 36.2253 10.1742 36.2227 10.2073C36.2245 10.243 36.2401 10.2767 36.2662 10.3013C36.2925 10.3256 36.327 10.339 36.3628 10.3383Z" fill="white"/>
<path d="M37.071 10.2849C37.1036 10.2817 37.1341 10.2676 37.1573 10.2448C37.1807 10.222 37.1954 10.1916 37.1991 10.1592C37.1992 10.1238 37.1854 10.0897 37.1604 10.0646C37.1356 10.0393 37.1018 10.0251 37.0664 10.0247C37.0336 10.0251 37.0023 10.0382 36.9789 10.0612C36.9557 10.0843 36.9423 10.1155 36.9416 10.1482C36.9407 10.1658 36.9434 10.1833 36.9496 10.1998C36.9557 10.2163 36.9651 10.2314 36.9772 10.2441C36.9894 10.2569 37.0039 10.2671 37.02 10.274C37.036 10.281 37.0535 10.2847 37.071 10.2849Z" fill="white"/>
<path d="M46.3752 16.79C46.4084 16.7876 46.4394 16.7725 46.4618 16.748C46.4842 16.7234 46.4965 16.6913 46.4959 16.658C46.4954 16.6247 46.4821 16.593 46.459 16.5691C46.4359 16.5453 46.4044 16.5312 46.3711 16.5298C46.3534 16.5303 46.336 16.5346 46.3198 16.5421C46.3037 16.5494 46.2893 16.56 46.2773 16.5731C46.2652 16.5862 46.256 16.6014 46.25 16.6181C46.2439 16.6348 46.2414 16.6526 46.2422 16.6702C46.2452 16.7034 46.2606 16.734 46.2852 16.7563C46.3098 16.7786 46.3419 16.7905 46.3752 16.79Z" fill="white"/>
<path d="M46.3752 22.2063C46.3424 22.2073 46.3111 22.2208 46.2878 22.2441C46.2645 22.2672 46.251 22.2984 46.2498 22.3312C46.2489 22.364 46.2599 22.3958 46.281 22.4209C46.3022 22.4459 46.3319 22.4621 46.3644 22.4663C46.3998 22.4687 46.4346 22.457 46.4612 22.4338C46.488 22.4105 46.5044 22.3778 46.5069 22.3424C46.5069 22.3071 46.4933 22.2731 46.4686 22.2478C46.444 22.2224 46.4105 22.2076 46.3752 22.2063Z" fill="white"/>
<path d="M46.1139 16.1158C46.1316 16.1167 46.1493 16.114 46.1658 16.1078C46.1824 16.1016 46.1975 16.0921 46.2103 16.0799C46.2232 16.0676 46.2333 16.0528 46.2401 16.0366C46.2471 16.0202 46.2505 16.0027 46.2504 15.9849C46.2508 15.9515 46.2378 15.9192 46.2146 15.8953C46.1913 15.8711 46.1594 15.8572 46.126 15.8565C46.0926 15.8558 46.0601 15.8683 46.0359 15.8913C46.0115 15.9143 45.9972 15.946 45.9961 15.9794C45.9955 16.0127 46.0073 16.0449 46.029 16.0701C46.0507 16.0952 46.0809 16.1114 46.1139 16.1158Z" fill="white"/>
<path d="M43.669 12.6354C43.7019 12.631 43.7319 12.6146 43.7536 12.5895C43.7751 12.5644 43.7868 12.5321 43.7861 12.4991C43.7854 12.4659 43.7714 12.4341 43.7476 12.4111C43.7236 12.388 43.6914 12.3753 43.6582 12.3757C43.625 12.377 43.5937 12.3907 43.5705 12.4142C43.5473 12.4378 43.5339 12.4694 43.5332 12.5025C43.5329 12.5203 43.5363 12.5379 43.5431 12.5544C43.5499 12.5708 43.5599 12.5856 43.5726 12.598C43.5854 12.6106 43.6003 12.6203 43.617 12.6266C43.6336 12.633 43.6513 12.6359 43.669 12.6354Z" fill="white"/>
<path d="M45.091 14.2309C45.1242 14.2318 45.1565 14.2195 45.1806 14.1968C45.2047 14.1741 45.2191 14.1428 45.2202 14.1096C45.2228 14.0761 45.2118 14.0431 45.1899 14.0175C45.168 13.9922 45.1369 13.9765 45.1035 13.974C45.07 13.9716 45.0369 13.9824 45.0115 14.0043C44.986 14.0263 44.9703 14.0573 44.9678 14.0907C44.9654 14.1084 44.9667 14.1263 44.9717 14.1432C44.9768 14.1603 44.9854 14.1759 44.9971 14.1892C45.0088 14.2026 45.0233 14.2131 45.0396 14.2203C45.0558 14.2275 45.0733 14.2312 45.091 14.2309Z" fill="white"/>
<path d="M30.2123 13.6918C30.2374 13.692 30.2619 13.6846 30.283 13.6708C30.304 13.657 30.3203 13.6373 30.3301 13.6141C30.3398 13.591 30.3425 13.5655 30.3378 13.5409C30.333 13.5163 30.3212 13.4936 30.3035 13.4756C30.2859 13.4577 30.2633 13.4455 30.2388 13.4404C30.2143 13.4353 30.1887 13.4376 30.1655 13.4469C30.1422 13.4563 30.1222 13.4724 30.1079 13.4931C30.0938 13.5139 30.0862 13.5383 30.0859 13.5635C30.0875 13.5966 30.1012 13.6281 30.1246 13.6518C30.1478 13.6755 30.1792 13.6897 30.2123 13.6918Z" fill="white"/>
<path d="M44.1746 13.1289C44.2079 13.1299 44.2404 13.1178 44.2646 13.0951C44.289 13.0723 44.3033 13.0407 44.3044 13.0074C44.3054 12.9741 44.2941 12.9417 44.2725 12.9163C44.2511 12.8909 44.2209 12.8744 44.1879 12.87C44.1701 12.8692 44.1524 12.872 44.1357 12.8782C44.1191 12.8844 44.104 12.8941 44.091 12.9064C44.0782 12.9187 44.0682 12.9335 44.0611 12.9498C44.0542 12.9662 44.0507 12.9838 44.0508 13.0016C44.0504 13.0181 44.0535 13.0346 44.0594 13.05C44.0655 13.0653 44.0745 13.0793 44.0861 13.0911C44.0976 13.103 44.1115 13.1124 44.1265 13.1189C44.1418 13.1254 44.1581 13.1288 44.1746 13.1289Z" fill="white"/>
<path d="M44.6588 13.6621C44.692 13.6621 44.7238 13.649 44.7474 13.6256C44.7709 13.6021 44.7842 13.5704 44.7843 13.5371C44.7852 13.5208 44.7826 13.5041 44.7769 13.4888C44.7712 13.4733 44.7625 13.4591 44.751 13.447C44.7398 13.4352 44.7261 13.4256 44.711 13.419C44.6958 13.4125 44.6794 13.4089 44.6629 13.4089C44.6457 13.4074 44.6282 13.4095 44.6117 13.415C44.5952 13.4206 44.5801 13.4295 44.5671 13.4412C44.5543 13.4528 44.5439 13.467 44.5367 13.4828C44.5295 13.4988 44.5255 13.5158 44.5254 13.5333C44.5251 13.5507 44.5284 13.568 44.535 13.5841C44.5416 13.6 44.5516 13.6146 44.564 13.6267C44.5766 13.6387 44.5915 13.6481 44.6078 13.6542C44.6241 13.6602 44.6415 13.6631 44.6588 13.6621Z" fill="white"/>
<path d="M45.8423 23.54C45.809 23.5398 45.7768 23.5522 45.7524 23.5747C45.728 23.5972 45.7131 23.6283 45.7107 23.6615C45.7107 23.6792 45.7142 23.6966 45.7211 23.7129C45.728 23.7293 45.7382 23.744 45.751 23.7562C45.7637 23.7686 45.7788 23.7782 45.7952 23.7846C45.8118 23.7909 45.8293 23.7939 45.8471 23.7933C45.8803 23.7922 45.9118 23.7781 45.9348 23.754C45.9578 23.7299 45.9702 23.6977 45.9696 23.6644C45.9683 23.6313 45.9545 23.5998 45.9308 23.5767C45.9071 23.5536 45.8754 23.5405 45.8423 23.54Z" fill="white"/>
<path d="M40.6006 10.8138C40.6172 10.8131 40.6336 10.8092 40.6486 10.8021C40.6637 10.7951 40.6773 10.7852 40.6886 10.7729C40.6998 10.7605 40.7084 10.7463 40.7142 10.7306C40.7199 10.7149 40.7224 10.6983 40.7217 10.6817C40.721 10.665 40.717 10.6487 40.71 10.6337C40.7029 10.6186 40.6929 10.6049 40.6807 10.5938C40.6684 10.5825 40.654 10.5738 40.6383 10.5681C40.6228 10.5624 40.6062 10.56 40.5896 10.5607C40.5564 10.5619 40.5251 10.5756 40.5013 10.5987C40.4776 10.6217 40.4632 10.6529 40.4609 10.6859C40.4611 10.7037 40.4649 10.7212 40.4721 10.7375C40.4793 10.7537 40.4898 10.7683 40.503 10.7802C40.5161 10.7922 40.5314 10.8014 40.5482 10.8072C40.5652 10.813 40.5829 10.8152 40.6006 10.8138Z" fill="white"/>
<path d="M34.9431 10.6146C34.9606 10.6146 34.978 10.6112 34.9942 10.6044C35.0104 10.5976 35.0251 10.5879 35.0375 10.5755C35.0499 10.5631 35.0597 10.5483 35.0664 10.5322C35.073 10.5158 35.0765 10.4986 35.0765 10.481C35.0757 10.4483 35.0624 10.4171 35.0393 10.3941C35.016 10.371 34.985 10.3577 34.9523 10.357C34.9347 10.3563 34.9173 10.3592 34.9008 10.3654C34.8845 10.3717 34.8695 10.3812 34.8568 10.3933C34.8441 10.4054 34.8341 10.4199 34.8272 10.4362C34.8203 10.4522 34.8168 10.4696 34.8166 10.4871C34.8203 10.5195 34.8347 10.5498 34.8577 10.5728C34.8806 10.5961 34.9107 10.6107 34.9431 10.6146Z" fill="white"/>
<path d="M46.5669 21.5171C46.5419 21.5178 46.5177 21.526 46.4972 21.5404C46.4768 21.5549 46.461 21.575 46.4519 21.5983C46.4431 21.6217 46.4411 21.6473 46.4464 21.6718C46.4519 21.6962 46.4645 21.7185 46.4827 21.7358C46.5007 21.7532 46.5236 21.7647 46.5483 21.7691C46.5729 21.7735 46.5983 21.7705 46.6212 21.7604C46.6443 21.7503 46.6638 21.7338 46.6773 21.7127C46.6908 21.6917 46.6977 21.667 46.6975 21.642C46.6948 21.6089 46.68 21.5777 46.6559 21.5547C46.6319 21.5318 46.6002 21.5184 46.5669 21.5171Z" fill="white"/>
<path d="M39.9267 28.4157C39.8938 28.418 39.8631 28.4331 39.8411 28.4578C39.8189 28.4824 39.8075 28.5147 39.8089 28.5477C39.8089 28.5641 39.8122 28.5803 39.8187 28.5954C39.8251 28.6105 39.8345 28.6242 39.8463 28.6356C39.8581 28.6469 39.8721 28.6558 39.8873 28.6615C39.9027 28.6675 39.9191 28.6701 39.9354 28.6694C39.9686 28.6696 40.0003 28.6567 40.024 28.6336C40.0477 28.6105 40.0614 28.5792 40.0622 28.546C40.0625 28.5284 40.0591 28.5109 40.0523 28.4947C40.0457 28.4783 40.0356 28.4637 40.0229 28.4514C40.0102 28.4391 39.9949 28.4297 39.9784 28.4236C39.9619 28.4174 39.9443 28.4147 39.9267 28.4157Z" fill="white"/>
<path d="M30.6935 25.886C30.6766 25.8873 30.6601 25.8918 30.6449 25.8997C30.6298 25.9075 30.6164 25.9182 30.6055 25.9312C30.5945 25.9443 30.5865 25.9594 30.5816 25.9757C30.5766 25.9919 30.5751 26.009 30.5769 26.0259C30.5787 26.0429 30.584 26.0592 30.5923 26.074C30.6005 26.0888 30.6117 26.1019 30.6251 26.1124C30.6385 26.1227 30.6539 26.1304 30.6704 26.1347C30.6869 26.139 30.704 26.14 30.7209 26.1375C30.7375 26.1358 30.7536 26.1309 30.7681 26.123C30.7828 26.1151 30.7958 26.1042 30.8062 26.0912C30.8168 26.0783 30.8246 26.0634 30.8292 26.0474C30.834 26.0314 30.8356 26.0147 30.8337 25.998C30.8319 25.9815 30.8268 25.9654 30.8188 25.9508C30.8107 25.9362 30.7999 25.9233 30.7869 25.9128C30.7738 25.9025 30.759 25.8948 30.7429 25.8901C30.7268 25.8856 30.71 25.8842 30.6935 25.886Z" fill="white"/>
<path d="M36.3774 28.6887C36.3442 28.6907 36.3129 28.7048 36.2895 28.7284C36.266 28.7519 36.252 28.7832 36.25 28.8164C36.2496 28.8423 36.2569 28.8676 36.2712 28.8893C36.2851 28.911 36.3054 28.9279 36.3293 28.9379C36.3531 28.9479 36.3793 28.9506 36.4046 28.9457C36.43 28.9408 36.4534 28.9283 36.4716 28.91C36.4898 28.8917 36.5022 28.8684 36.5071 28.843C36.5119 28.8176 36.5092 28.7914 36.4991 28.7676C36.4889 28.7439 36.472 28.7236 36.4503 28.7096C36.4286 28.6955 36.4032 28.6883 36.3774 28.6887Z" fill="white"/>
<path d="M43.682 26.3766C43.6486 26.3751 43.616 26.3863 43.5908 26.4082C43.5657 26.4301 43.5499 26.4609 43.5469 26.4942C43.5465 26.5118 43.5497 26.5295 43.5564 26.5461C43.5628 26.5625 43.5727 26.5776 43.5851 26.5901C43.5977 26.6027 43.6126 26.6127 43.629 26.6195C43.6453 26.6262 43.663 26.6296 43.6807 26.6295C43.714 26.629 43.7458 26.6155 43.7692 26.5917C43.7926 26.568 43.8057 26.536 43.8056 26.5027C43.8061 26.4862 43.8033 26.4697 43.7974 26.4543C43.7913 26.4391 43.7823 26.425 43.7707 26.4133C43.7592 26.4014 43.7453 26.3921 43.7301 26.3858C43.7149 26.3796 43.6984 26.3765 43.682 26.3766Z" fill="white"/>
<path d="M37.1014 28.7393C37.0836 28.7393 37.0661 28.7429 37.0496 28.7501C37.0334 28.7572 37.0187 28.7675 37.0064 28.7804C36.9943 28.7934 36.9849 28.8086 36.9787 28.8254C36.9726 28.8421 36.9699 28.8598 36.9709 28.8776C36.9729 28.9106 36.9877 28.9416 37.0121 28.9639C37.0365 28.9862 37.0686 28.998 37.1018 28.9971C37.1348 28.9961 37.1662 28.9822 37.1892 28.9584C37.2122 28.9347 37.225 28.903 37.225 28.8698C37.224 28.8367 37.2109 28.805 37.1882 28.781C37.1654 28.7569 37.1345 28.7419 37.1014 28.7393Z" fill="white"/>
<path d="M43.1195 26.8326C43.0862 26.8343 43.0549 26.8485 43.0321 26.8726C43.0091 26.8966 42.9962 26.9286 42.9961 26.9619C42.9982 26.9951 43.0125 27.0261 43.0364 27.0492C43.0601 27.0723 43.0917 27.0857 43.1249 27.0867C43.1581 27.0864 43.19 27.0736 43.2141 27.0506C43.2382 27.0278 43.2528 26.9966 43.2547 26.9635C43.2554 26.9457 43.2522 26.9279 43.2456 26.9116C43.2389 26.8951 43.2289 26.8803 43.2162 26.8679C43.2035 26.8556 43.1883 26.846 43.1717 26.8399C43.1549 26.8339 43.1373 26.8313 43.1195 26.8326Z" fill="white"/>
<path d="M32.3769 27.2465C32.3591 27.2456 32.3413 27.2483 32.3247 27.2545C32.3081 27.2607 32.2928 27.2703 32.28 27.2826C32.2672 27.295 32.257 27.3098 32.2502 27.3262C32.2433 27.3425 32.2401 27.3603 32.2402 27.3781C32.2395 27.3944 32.2421 27.4111 32.2478 27.4264C32.2536 27.442 32.2625 27.4561 32.2741 27.468C32.2855 27.4799 32.2992 27.4893 32.3144 27.4958C32.3296 27.5023 32.346 27.5057 32.3625 27.5056C32.379 27.5061 32.3954 27.5036 32.4109 27.4978C32.4264 27.492 32.4406 27.4833 32.4526 27.4719C32.4647 27.4607 32.4743 27.447 32.4812 27.4321C32.488 27.417 32.4917 27.4008 32.4921 27.3841C32.4935 27.351 32.4824 27.3184 32.4611 27.293C32.4398 27.2676 32.4097 27.251 32.3769 27.2465Z" fill="white"/>
<path d="M31.2144 12.6611C31.2475 12.6582 31.2784 12.643 31.3008 12.6185C31.3233 12.5941 31.3358 12.5621 31.3358 12.5288C31.3357 12.511 31.3317 12.4935 31.3245 12.4773C31.3172 12.4611 31.3065 12.4467 31.2934 12.4349C31.2801 12.423 31.2646 12.414 31.2477 12.4085C31.2309 12.4028 31.213 12.401 31.1953 12.4027C31.1788 12.4041 31.1628 12.4088 31.1482 12.4165C31.1337 12.4243 31.1207 12.4347 31.1103 12.4476C31.0997 12.4602 31.0918 12.4751 31.0872 12.4908C31.0824 12.5066 31.081 12.5233 31.0828 12.5396C31.0853 12.5728 31.1003 12.6037 31.1247 12.6262C31.1492 12.6487 31.1812 12.6612 31.2144 12.6611Z" fill="white"/>
<path d="M28.1009 18.9352C28.1183 18.9369 28.1359 18.935 28.1525 18.9295C28.1692 18.924 28.1845 18.9153 28.1976 18.9036C28.2108 18.8919 28.2212 18.8776 28.2284 18.8617C28.2357 18.8456 28.2395 18.8284 28.2398 18.8109C28.2409 18.7781 28.2292 18.7461 28.207 18.7218C28.1847 18.6977 28.1538 18.6832 28.1209 18.6816C28.0857 18.6796 28.0513 18.6916 28.0249 18.715C27.9985 18.7384 27.9826 18.7713 27.9805 18.8066C27.9808 18.8391 27.9932 18.8704 28.0156 18.8943C28.0379 18.9181 28.0683 18.9328 28.1009 18.9352Z" fill="white"/>
<path d="M42.5254 11.7635C42.5419 11.7631 42.5581 11.7593 42.5732 11.7524C42.5883 11.7455 42.6017 11.7358 42.613 11.7236C42.6242 11.7114 42.6328 11.6973 42.6385 11.6816C42.6443 11.6661 42.6467 11.6496 42.6458 11.6331C42.645 11.5998 42.631 11.5681 42.607 11.545C42.5829 11.5218 42.5508 11.5091 42.5173 11.5096C42.5 11.5091 42.4828 11.5122 42.4667 11.5186C42.4506 11.5251 42.4361 11.5348 42.4238 11.5469C42.4116 11.5593 42.402 11.5739 42.3956 11.5901C42.3893 11.6062 42.3863 11.6235 42.3868 11.6409C42.3873 11.6581 42.3914 11.6751 42.3987 11.6908C42.4062 11.7066 42.4167 11.7205 42.4296 11.7321C42.4426 11.7435 42.4577 11.7523 42.4742 11.7578C42.4907 11.7631 42.508 11.7651 42.5254 11.7635Z" fill="white"/>
<path d="M46.7009 20.8091C46.6677 20.8105 46.6363 20.8245 46.6129 20.848C46.5894 20.8716 46.5756 20.903 46.5744 20.9361C46.5728 20.9694 46.5845 21.0019 46.6069 21.0265C46.6292 21.0511 46.6605 21.0659 46.6937 21.0676C46.7114 21.069 46.7293 21.0666 46.746 21.0605C46.7628 21.0545 46.778 21.0449 46.7907 21.0325C46.8035 21.0201 46.8134 21.005 46.8199 20.9885C46.8262 20.9718 46.8292 20.9541 46.8281 20.9363C46.8262 20.9031 46.8121 20.872 46.7886 20.8484C46.7652 20.825 46.7339 20.8111 46.7009 20.8091Z" fill="white"/>
<path d="M41.2891 27.931C41.2714 27.9297 41.2536 27.9323 41.2368 27.9383C41.2202 27.9445 41.2049 27.9541 41.1922 27.9665C41.1795 27.9789 41.1695 27.994 41.163 28.0105C41.1566 28.027 41.1536 28.0448 41.1544 28.0626C41.1558 28.0958 41.1702 28.1274 41.1944 28.1503C41.2186 28.1733 41.2509 28.1858 41.2842 28.1853C41.3179 28.186 41.3506 28.1731 41.3749 28.1497C41.3991 28.1264 41.4131 28.0943 41.4138 28.0606C41.4145 28.0269 41.4017 27.9943 41.3784 27.9699C41.355 27.9456 41.3228 27.9317 41.2891 27.931Z" fill="white"/>
<path d="M28.4603 21.6528C28.4592 21.6197 28.4451 21.5884 28.4213 21.5654C28.3973 21.5425 28.3654 21.53 28.3323 21.5303C28.2991 21.5307 28.2675 21.544 28.2441 21.5674C28.2207 21.5908 28.2075 21.6225 28.207 21.6557C28.2072 21.6733 28.2108 21.6908 28.2179 21.7071C28.2248 21.7235 28.235 21.7381 28.2476 21.7506C28.2603 21.7628 28.2754 21.7726 28.2918 21.779C28.3083 21.7854 28.3259 21.7886 28.3437 21.7882C28.3768 21.7853 28.4077 21.7695 28.4294 21.7442C28.4511 21.7188 28.4623 21.6861 28.4603 21.6528Z" fill="white"/>
<path d="M28.241 20.2391C28.2401 20.2058 28.2264 20.1741 28.2027 20.1508C28.1789 20.1275 28.147 20.1143 28.1136 20.1143C28.096 20.1147 28.0785 20.1185 28.0624 20.1257C28.0462 20.1329 28.0315 20.1432 28.0194 20.1559C28.0073 20.1687 27.9976 20.1838 27.9913 20.2003C27.985 20.2169 27.982 20.2344 27.9825 20.2522C27.9864 20.2852 28.0028 20.3155 28.0283 20.3369C28.0538 20.3582 28.0865 20.3692 28.1198 20.3674C28.1362 20.3673 28.1525 20.3639 28.1676 20.3572C28.1829 20.3506 28.1964 20.3412 28.2078 20.329C28.2191 20.3172 28.2278 20.3029 28.2335 20.2874C28.2393 20.2721 28.2418 20.2556 28.241 20.2391Z" fill="white"/>
<path d="M28.5314 22.2225C28.5135 22.2212 28.4957 22.2236 28.4789 22.2297C28.4623 22.2358 28.4471 22.2455 28.4342 22.2579C28.4215 22.2703 28.4117 22.2853 28.405 22.3019C28.3985 22.3184 28.3957 22.3363 28.3966 22.3541C28.3969 22.3706 28.4002 22.3869 28.4069 22.402C28.4134 22.4173 28.4229 22.4309 28.4349 22.4424C28.4468 22.4538 28.4609 22.4627 28.4764 22.4686C28.4919 22.4744 28.5083 22.4772 28.5249 22.4765C28.5582 22.4771 28.5905 22.4644 28.6146 22.4414C28.6386 22.4182 28.6525 22.3865 28.6534 22.3532C28.6541 22.3198 28.6418 22.2875 28.619 22.2631C28.5961 22.2386 28.5647 22.224 28.5314 22.2225Z" fill="white"/>
<path d="M29.7866 24.7792C29.7536 24.7817 29.7229 24.7969 29.7008 24.8216C29.6786 24.8463 29.6669 24.8786 29.668 24.9117C29.6682 24.9282 29.6716 24.9444 29.6782 24.9595C29.6847 24.9746 29.6941 24.9883 29.7058 24.9997C29.7177 25.0111 29.7316 25.02 29.7469 25.0261C29.7622 25.0322 29.7786 25.035 29.795 25.0346C29.8115 25.0351 29.8278 25.0323 29.8432 25.0264C29.8586 25.0205 29.8725 25.0114 29.8842 24.9999C29.8961 24.9884 29.9054 24.9746 29.9116 24.9594C29.9179 24.9442 29.921 24.9278 29.9209 24.9114C29.9215 24.8937 29.9182 24.8762 29.9116 24.8598C29.905 24.8435 29.8951 24.8285 29.8824 24.8161C29.8698 24.8037 29.8549 24.7941 29.8384 24.7878C29.822 24.7814 29.8043 24.7784 29.7866 24.7792Z" fill="white"/>
<path d="M28.7721 22.8984C28.7558 22.897 28.7393 22.8988 28.7236 22.904C28.7081 22.9091 28.6936 22.9174 28.6813 22.9283C28.669 22.9392 28.6592 22.9526 28.6521 22.9675C28.6451 22.9823 28.6413 22.9984 28.6408 23.0149C28.6389 23.0401 28.6444 23.0654 28.6568 23.0874C28.6692 23.1094 28.6879 23.1272 28.7106 23.1386C28.7332 23.1499 28.7587 23.1541 28.7837 23.1508C28.8089 23.1475 28.8323 23.1367 28.8512 23.12C28.8701 23.1032 28.8837 23.081 28.8899 23.0566C28.8962 23.0321 28.895 23.0063 28.8865 22.9825C28.878 22.9586 28.8625 22.9379 28.8422 22.9229C28.8218 22.908 28.7974 22.8995 28.7721 22.8984Z" fill="white"/>
<path d="M45.8402 15.4603C45.8734 15.4573 45.9041 15.4421 45.9265 15.4177C45.9491 15.3931 45.9618 15.3613 45.9622 15.3281C45.9598 15.2949 45.9449 15.2638 45.9202 15.2413C45.8957 15.2188 45.8634 15.2066 45.8301 15.2071C45.8134 15.2064 45.7971 15.2093 45.7816 15.2152C45.7662 15.2211 45.7521 15.2301 45.7403 15.2417C45.7284 15.2533 45.719 15.2671 45.7126 15.2823C45.7063 15.2975 45.703 15.3139 45.7032 15.3305C45.7027 15.3483 45.7061 15.3659 45.7129 15.3824C45.7198 15.3988 45.73 15.4136 45.7429 15.4259C45.7558 15.4381 45.7711 15.4474 45.7879 15.4534C45.8047 15.4593 45.8226 15.4617 45.8402 15.4603Z" fill="white"/>
<path d="M28.5115 16.8264C28.5291 16.8275 28.5468 16.8249 28.5634 16.8185C28.5799 16.8122 28.5949 16.8023 28.6073 16.7896C28.6197 16.7771 28.6293 16.7618 28.6352 16.7452C28.6411 16.7285 28.6435 16.7108 28.6421 16.6931C28.6406 16.6601 28.626 16.629 28.6016 16.6067C28.5774 16.5843 28.5451 16.5724 28.5121 16.5736C28.4957 16.5736 28.4794 16.5768 28.4643 16.5833C28.4492 16.5896 28.4355 16.5989 28.4239 16.6106C28.4124 16.6224 28.4035 16.6363 28.3974 16.6515C28.3914 16.6668 28.3884 16.6831 28.3887 16.6996C28.3883 16.7326 28.4011 16.7645 28.4239 16.7882C28.4471 16.812 28.4785 16.8257 28.5115 16.8264Z" fill="white"/>
<path d="M29.3983 24.1802C29.382 24.1802 29.3659 24.1835 29.3508 24.1899C29.3358 24.1962 29.3222 24.2057 29.3109 24.2175C29.2996 24.2294 29.2907 24.2433 29.2851 24.2587C29.2793 24.2741 29.2768 24.2903 29.2775 24.3067C29.2775 24.3234 29.2808 24.3402 29.2875 24.3559C29.2941 24.3714 29.3038 24.3853 29.316 24.3971C29.3281 24.4088 29.3426 24.4181 29.3584 24.424C29.3741 24.4301 29.391 24.4329 29.4078 24.4322C29.4247 24.4316 29.4413 24.4277 29.4566 24.4205C29.4719 24.4133 29.4856 24.4031 29.4969 24.3906C29.5082 24.378 29.5169 24.3633 29.5223 24.3474C29.5279 24.3313 29.53 24.3144 29.5289 24.2976C29.5282 24.2813 29.5243 24.2652 29.5172 24.2504C29.5103 24.2356 29.5004 24.2223 29.4883 24.2115C29.4762 24.2005 29.4619 24.1921 29.4465 24.1868C29.431 24.1814 29.4147 24.1792 29.3983 24.1802Z" fill="white"/>
<path d="M34.2922 28.2034C34.2746 28.2031 34.2571 28.2065 34.2408 28.2134C34.2246 28.2204 34.21 28.2306 34.1978 28.2436C34.1859 28.2564 34.1767 28.2718 34.1709 28.2884C34.1651 28.3052 34.163 28.323 34.1646 28.3405C34.1653 28.3568 34.1693 28.3729 34.1764 28.3877C34.1835 28.4025 34.1933 28.4158 34.2057 28.4266C34.218 28.4375 34.2322 28.4457 34.2479 28.4509C34.2634 28.4561 34.2798 28.4581 34.2961 28.4568C34.3291 28.4557 34.3604 28.4416 34.3831 28.4175C34.406 28.3936 34.4183 28.3616 34.4176 28.3285C34.4169 28.2955 34.4035 28.264 34.3802 28.2406C34.3568 28.2173 34.3253 28.2039 34.2922 28.2034Z" fill="white"/>
<path d="M38.509 10.3324C38.5419 10.3294 38.5723 10.3142 38.5942 10.2895C38.6162 10.2648 38.6278 10.2327 38.6268 10.1998C38.6252 10.1668 38.6108 10.1356 38.5869 10.1129C38.5629 10.0904 38.5309 10.078 38.4979 10.0784C38.4815 10.0781 38.4652 10.0813 38.4501 10.0874C38.4348 10.0936 38.421 10.1028 38.4095 10.1143C38.3978 10.1259 38.3886 10.1397 38.3824 10.1548C38.376 10.1701 38.3729 10.1863 38.3731 10.2028C38.3727 10.2204 38.3762 10.2379 38.383 10.2541C38.3897 10.2705 38.3999 10.2851 38.4126 10.2973C38.4254 10.3095 38.4405 10.319 38.4571 10.3249C38.4738 10.331 38.4914 10.3335 38.509 10.3324Z" fill="white"/>
<path d="M38.5339 28.6886C38.5007 28.6874 38.4684 28.6993 38.444 28.7214C38.4195 28.7437 38.4047 28.7747 38.4026 28.8077C38.401 28.833 38.407 28.8582 38.4198 28.8801C38.4326 28.9021 38.4517 28.9196 38.4745 28.9307C38.4974 28.9417 38.523 28.9455 38.5481 28.9418C38.5731 28.9382 38.5965 28.9272 38.6154 28.9101C38.6342 28.893 38.6474 28.8708 38.6535 28.8462C38.6594 28.8215 38.658 28.7956 38.6492 28.7718C38.6405 28.7481 38.6248 28.7273 38.6043 28.7125C38.5837 28.6977 38.5591 28.6893 38.5339 28.6886Z" fill="white"/>
<path d="M11.1188 26.6875C12.1946 24.6295 13.3687 22.6008 14.3342 20.4774C15.3972 18.1393 14.0677 15.7138 11.5944 15.1913C9.31411 14.7097 7.21494 16.275 6.9367 18.6642C6.69089 20.7751 8.30606 22.5561 10.5739 22.6674C10.9138 22.684 11.2553 22.6696 11.7275 22.6696L9.37884 26.6873H11.1192L11.1188 26.6875ZM10.9431 21.4135C9.42834 21.4337 8.32636 20.3938 8.3172 18.9356C8.30817 17.4654 9.40211 16.3792 10.8791 16.392C12.296 16.4044 13.3135 17.4383 13.3281 18.8804C13.3431 20.3441 12.3541 21.3948 10.9431 21.4135Z" fill="white"/>
<path d="M4.1936 15.2485C3.39582 15.6204 2.83792 15.8599 2.29935 16.137C1.7014 16.4444 1.12122 16.7867 0.5 17.1322C0.521436 17.5832 0.540474 17.9837 0.563321 18.4697L2.66658 17.4377V25.5318H1.70337V26.6639H5.18882V25.5318H4.22801C4.22801 25.5318 4.23309 21.941 4.22646 20.32C4.21997 18.7195 4.25622 17.1167 4.1936 15.2485Z" fill="white"/>
<path d="M16.4613 11.1384H0.560547V11.909H16.4613V11.1384Z" fill="white"/>
<path d="M16.4613 29.9395H0.560547V30.71H16.4613V29.9395Z" fill="white"/>
<path d="M77.4302 11.1384H59.2968V11.909H77.4302V11.1384Z" fill="white"/>
<path d="M77.4302 29.9395H59.2968V30.71H77.4302V29.9395Z" fill="white"/>
<path d="M60.3945 23.6116C60.394 24.2071 60.5495 24.7925 60.8458 25.3092C61.1423 25.826 61.569 26.2559 62.0835 26.5561C62.5979 26.8563 63.182 27.0162 63.7777 27.02C64.3733 27.0238 64.9595 26.8714 65.4778 26.5776C65.9961 26.284 66.4282 25.8595 66.731 25.3466C67.0339 24.8338 67.197 24.2504 67.2038 23.6549C67.2109 23.0592 67.0612 22.4722 66.7704 21.9524C66.4795 21.4327 66.0573 20.9982 65.5461 20.6928C66.0773 20.3212 66.4763 19.7899 66.685 19.176C66.8937 18.5623 66.9012 17.8979 66.7064 17.2794C66.5117 16.661 66.1247 16.1209 65.6019 15.7374C65.0791 15.354 64.4478 15.1472 63.7995 15.1472C63.151 15.1472 62.5196 15.354 61.9967 15.7374C61.4741 16.1209 61.0871 16.661 60.8924 17.2794C60.6976 17.8979 60.7051 18.5623 60.9138 19.176C61.1225 19.7899 61.5215 20.3212 62.0527 20.6928C61.5474 20.9941 61.1289 21.4216 60.8382 21.9331C60.5475 22.4449 60.3947 23.0231 60.3945 23.6116ZM61.9618 18.1972C61.9615 17.8369 62.067 17.4844 62.2652 17.1836C62.4637 16.8828 62.746 16.647 63.0773 16.5053C63.4085 16.3637 63.7742 16.3227 64.1286 16.3873C64.4831 16.4518 64.8108 16.6191 65.0709 16.8684C65.331 17.1178 65.5122 17.438 65.5916 17.7893C65.6711 18.1408 65.6456 18.5079 65.5183 18.8449C65.3909 19.182 65.1673 19.474 64.8752 19.685C64.583 19.8958 64.2355 20.0163 63.8755 20.0312C63.8499 20.0305 63.825 20.0274 63.7995 20.0274C63.7738 20.0274 63.749 20.0305 63.7234 20.0312C63.2499 20.012 62.802 19.8104 62.4737 19.4685C62.1452 19.1267 61.9619 18.6712 61.9618 18.197V18.1972ZM63.7993 21.4131C64.2342 21.4131 64.6592 21.542 65.0207 21.7836C65.3823 22.0252 65.6641 22.3684 65.8305 22.7702C65.9969 23.172 66.0404 23.614 65.9556 24.0404C65.8707 24.4669 65.6614 24.8587 65.3538 25.1661C65.0464 25.4735 64.6546 25.683 64.2283 25.7679C63.8017 25.8526 63.3597 25.809 62.9581 25.6426C62.5563 25.4764 62.2129 25.1944 61.9715 24.8329C61.7298 24.4714 61.6009 24.0464 61.6009 23.6116C61.6009 23.0284 61.8324 22.4693 62.2448 22.0569C62.6571 21.6447 63.2163 21.413 63.7995 21.413L63.7993 21.4131Z" fill="white"/>
<path d="M73.0298 27.0035C72.2199 27.0035 71.5266 26.7947 70.9497 26.3769C70.3728 25.9592 69.9123 25.3798 69.5684 24.6385L70.5503 23.9715C70.8166 24.5509 71.1549 25.0091 71.5654 25.346C71.9759 25.6694 72.4807 25.8312 73.0798 25.8312C73.7233 25.8312 74.2225 25.6492 74.5776 25.2854C74.9437 24.908 75.1267 24.396 75.1267 23.7491C75.1267 22.9541 74.8881 22.3679 74.411 21.9906C73.9341 21.6132 73.1907 21.4247 72.1811 21.4247V20.2724C73.1019 20.2724 73.801 20.0972 74.2781 19.7469C74.755 19.3965 74.9936 18.871 74.9936 18.1702C74.9936 17.6312 74.8327 17.2 74.5109 16.8765C74.1892 16.5531 73.7233 16.3913 73.113 16.3913C72.5361 16.3913 72.0425 16.5666 71.632 16.9169C71.2215 17.2674 70.9274 17.7458 70.75 18.3522L69.7515 17.7862C69.9401 17.2471 70.1952 16.7889 70.5169 16.4116C70.8387 16.0344 71.2215 15.7446 71.6653 15.5425C72.1091 15.3269 72.5972 15.219 73.1297 15.219C74.0504 15.219 74.7828 15.4819 75.3263 16.0073C75.8811 16.5329 76.1585 17.2337 76.1585 18.1096C76.1585 18.6486 76.042 19.127 75.809 19.5447C75.5871 19.9625 75.2765 20.2927 74.877 20.5352C74.4887 20.7777 74.0504 20.9059 73.5623 20.9193V20.6969C74.3723 20.6969 75.0379 20.9731 75.5594 21.5257C76.0919 22.0782 76.3582 22.8193 76.3582 23.7491C76.3582 24.4229 76.225 25.0024 75.9588 25.4875C75.6925 25.9726 75.3097 26.35 74.8104 26.6195C74.3112 26.8755 73.7178 27.0035 73.0298 27.0035Z" fill="white"/>
</svg>
