<svg width="33" height="32" viewBox="0 0 33 32" fill="none" xmlns="http://www.w3.org/2000/svg">
<g clip-path="url(#clip0_1_981)">
<path d="M18.4126 19.4055L21.0236 15.8515C21.6436 15.0525 22.0166 14.0355 22.0166 12.9315C22.0166 12.9255 22.0166 12.9195 22.0166 12.9145V12.9155C22.0066 11.3565 21.3446 9.95446 20.2906 8.96646L20.2876 8.96346C19.3286 8.07046 18.0376 7.52246 16.6186 7.52246C13.7496 7.52246 11.4036 9.76346 11.2376 12.5915L11.2366 12.6065C11.2306 12.6985 11.2276 12.8065 11.2276 12.9145C11.2276 14.1185 11.6216 15.2315 12.2876 16.1295L12.2776 16.1145L14.5406 19.4105C10.7366 19.6165 7.05762 20.4515 7.05762 21.9185C7.05762 23.5815 11.9226 24.4795 16.4996 24.4795C21.0766 24.4795 25.9416 23.5815 25.9416 21.9185C25.9416 20.4195 22.2306 19.5895 18.4126 19.4055ZM11.7976 12.6365C11.9406 10.2045 13.8646 8.26346 16.2766 8.09546L16.2916 8.09446C16.4029 8.08713 16.514 8.08346 16.6246 8.08346C16.6286 8.08346 16.6336 8.08346 16.6396 8.08346C17.9036 8.08346 19.0536 8.57446 19.9076 9.37646L19.9046 9.37446C20.8526 10.2635 21.4456 11.5205 21.4546 12.9165V12.9185C21.4536 13.8915 21.1276 14.7885 20.5806 15.5065L20.5886 15.4965L16.4236 21.1635L12.7346 15.7885C12.1436 15.0015 11.7876 14.0085 11.7876 12.9325C11.7876 12.8285 11.7906 12.7265 11.7976 12.6245L11.7966 12.6385L11.7976 12.6365ZM16.4996 23.9175C10.9976 23.9175 7.61862 22.7535 7.61862 21.9185C7.61862 21.6115 8.14862 21.1295 9.63462 20.7005C11.2026 20.2785 13.0146 20.0095 14.8796 19.9555L14.9136 19.9545L15.8826 21.3665H13.3216C13.1666 21.3665 13.0406 21.4925 13.0406 21.6475C13.0406 21.8025 13.1666 21.9285 13.3216 21.9285H19.4296C19.5846 21.9285 19.7106 21.8025 19.7106 21.6475C19.7106 21.4925 19.5846 21.3665 19.4296 21.3665H16.9716L18.0116 19.9505C22.5636 20.1175 25.3796 21.0985 25.3796 21.9185C25.3796 22.7535 22.0016 23.9175 16.4996 23.9175Z" fill="#21A038"/>
<path d="M17.7829 13.0379C17.7829 13.6789 17.2639 14.1979 16.6229 14.1979C15.9819 14.1979 15.4629 13.6789 15.4629 13.0379C15.4629 12.3969 15.9819 11.8779 16.6229 11.8779C17.2639 11.8779 17.7829 12.3969 17.7829 13.0379Z" fill="#21A038"/>
<circle cx="16.5" cy="16" r="15.75" stroke="#21A038" stroke-width="0.5"/>
</g>
<defs>
<clipPath id="clip0_1_981">
<rect width="32" height="32" fill="white" transform="translate(0.5)"/>
</clipPath>
</defs>
</svg>
