<svg width="33" height="32" viewBox="0 0 33 32" fill="none" xmlns="http://www.w3.org/2000/svg">
<g clip-path="url(#clip0_1_961)">
<circle cx="16.5" cy="16" r="15.75" stroke="#21A038" stroke-width="0.5"/>
<path d="M15.0691 15.5599C15.0691 15.8219 14.8571 16.0339 14.5951 16.0339C14.3331 16.0339 14.1211 15.8219 14.1211 15.5599C14.1211 15.2979 14.3331 15.0859 14.5951 15.0859C14.8571 15.0859 15.0691 15.2979 15.0691 15.5599Z" fill="#21A038"/>
<path d="M17.1472 15.5599C17.1472 15.8219 16.9352 16.0339 16.6732 16.0339C16.4112 16.0339 16.1992 15.8219 16.1992 15.5599C16.1992 15.2979 16.4112 15.0859 16.6732 15.0859C16.9352 15.0859 17.1472 15.2979 17.1472 15.5599Z" fill="#21A038"/>
<path d="M19.2253 15.5599C19.2253 15.8219 19.0133 16.0339 18.7513 16.0339C18.4893 16.0339 18.2773 15.8219 18.2773 15.5599C18.2773 15.2979 18.4893 15.0859 18.7513 15.0859C19.0133 15.0859 19.2253 15.2979 19.2253 15.5599Z" fill="#21A038"/>
<path d="M14.5951 16.9951C14.3331 16.9951 14.1211 17.2071 14.1211 17.4691C14.1211 17.7311 14.3331 17.9431 14.5951 17.9431C14.8571 17.9431 15.0691 17.7311 15.0691 17.4691C15.0691 17.2071 14.8571 16.9951 14.5951 16.9951Z" fill="#21A038"/>
<path d="M16.6732 16.9951C16.4112 16.9951 16.1992 17.2071 16.1992 17.4691C16.1992 17.7311 16.4112 17.9431 16.6732 17.9431C16.9352 17.9431 17.1472 17.7311 17.1472 17.4691C17.1472 17.2071 16.9352 16.9951 16.6732 16.9951Z" fill="#21A038"/>
<path d="M18.7513 16.9951C18.4893 16.9951 18.2773 17.2071 18.2773 17.4691C18.2773 17.7311 18.4893 17.9431 18.7513 17.9431C19.0133 17.9431 19.2253 17.7311 19.2253 17.4691C19.2253 17.2071 19.0133 16.9951 18.7513 16.9951Z" fill="#21A038"/>
<path d="M15.0691 19.267C15.0691 19.529 14.8571 19.741 14.5951 19.741C14.3331 19.741 14.1211 19.529 14.1211 19.267C14.1211 19.005 14.3331 18.793 14.5951 18.793C14.8571 18.793 15.0691 19.005 15.0691 19.267Z" fill="#21A038"/>
<path d="M17.1472 19.267C17.1472 19.529 16.9352 19.741 16.6732 19.741C16.4112 19.741 16.1992 19.529 16.1992 19.267C16.1992 19.005 16.4112 18.793 16.6732 18.793C16.9352 18.793 17.1472 19.005 17.1472 19.267Z" fill="#21A038"/>
<path d="M19.2253 19.267C19.2253 19.529 19.0133 19.741 18.7513 19.741C18.4893 19.741 18.2773 19.529 18.2773 19.267C18.2773 19.005 18.4893 18.793 18.7513 18.793C19.0133 18.793 19.2253 19.005 19.2253 19.267Z" fill="#21A038"/>
<path d="M24.831 12.6C24.829 12.595 24.828 12.59 24.826 12.586C24.133 10.49 22.193 9.003 19.905 9H13.165C10.878 9.003 8.939 10.491 8.259 12.55L8.249 12.587C8.247 12.591 8.246 12.595 8.244 12.6C8.089 13.068 8 13.606 8 14.166C8 14.538 8.302 14.84 8.674 14.84H11.673L10.293 17.137C9.786 17.968 9.485 18.974 9.485 20.049V20.691C9.486 21.583 10.209 22.307 11.102 22.308H22.387C23.279 22.307 24.003 21.584 24.004 20.691C24.004 20.688 24.004 20.685 24.004 20.681C24.004 19.207 23.54 17.842 22.75 16.723L22.764 16.745L21.436 14.84H24.409C24.777 14.84 25.075 14.541 25.076 14.173C25.076 13.611 24.986 13.071 24.82 12.565L24.83 12.601L24.831 12.6ZM13.165 9.561H19.905C21.818 9.563 23.458 10.729 24.156 12.389L24.167 12.419H20.264C19.82 11.911 19.171 11.593 18.448 11.593C18.447 11.593 18.446 11.593 18.445 11.593H14.543C13.822 11.596 13.176 11.914 12.735 12.417L12.733 12.42H8.907C9.614 10.73 11.253 9.564 13.164 9.562L13.165 9.561ZM8.561 14.165C8.563 13.743 8.621 13.336 8.729 12.949L8.721 12.981H12.363C12.245 13.222 12.165 13.504 12.139 13.8L12.138 13.809C12.121 13.983 12.071 14.141 11.995 14.284L11.998 14.277H8.673C8.611 14.277 8.56 14.227 8.56 14.164L8.561 14.165ZM23.443 20.69C23.442 21.272 22.97 21.744 22.388 21.745H11.103C10.521 21.744 10.049 21.272 10.048 20.69V20.048C10.048 19.079 10.319 18.173 10.788 17.402L10.775 17.425L12.362 14.782C12.427 14.736 12.47 14.664 12.478 14.582C12.595 14.372 12.674 14.124 12.698 13.862L12.699 13.855C12.784 12.902 13.577 12.16 14.544 12.155H18.447C19.436 12.155 20.246 12.932 20.296 13.909V13.913C20.306 14.112 20.372 14.294 20.479 14.445L20.477 14.442L22.306 17.065C23.019 18.073 23.445 19.327 23.445 20.681C23.445 20.684 23.445 20.687 23.445 20.691L23.443 20.69ZM24.41 14.277H21.045L20.936 14.12C20.889 14.054 20.86 13.973 20.855 13.885V13.884C20.838 13.553 20.757 13.245 20.624 12.966L20.63 12.981H24.353C24.454 13.338 24.513 13.748 24.515 14.171V14.172C24.515 14.23 24.468 14.277 24.41 14.277Z" fill="#21A038"/>
</g>
<defs>
<clipPath id="clip0_1_961">
<rect width="32" height="32" fill="white" transform="translate(0.5)"/>
</clipPath>
</defs>
</svg>
