<svg width="51" height="50" viewBox="0 0 51 50" fill="none" xmlns="http://www.w3.org/2000/svg">
<path d="M25.5003 4.16699C14.0003 4.16699 4.66699 13.5003 4.66699 25.0003C4.66699 36.5003 14.0003 45.8337 25.5003 45.8337C37.0003 45.8337 46.3337 36.5003 46.3337 25.0003C46.3337 13.5003 37.0003 4.16699 25.5003 4.16699ZM35.167 18.3337C34.8545 21.6253 33.5003 29.6253 32.8128 33.3128C32.5212 34.8753 31.9378 35.3962 31.3962 35.4587C30.1878 35.5628 29.2712 34.667 28.1045 33.8962C26.2712 32.6878 25.2295 31.9378 23.4587 30.7712C21.3962 29.417 22.7295 28.667 23.917 27.4587C24.2295 27.1462 29.5628 22.292 29.667 21.8545C29.6815 21.7882 29.6795 21.7194 29.6614 21.6541C29.6432 21.5887 29.6094 21.5288 29.5628 21.4795C29.4378 21.3753 29.2712 21.417 29.1253 21.4378C28.9378 21.4795 26.0212 23.417 20.3337 27.2503C19.5003 27.8128 18.7503 28.1045 18.0837 28.0837C17.3337 28.0628 15.917 27.667 14.8545 27.3128C13.542 26.8962 12.5212 26.667 12.6045 25.9378C12.6462 25.5628 13.167 25.1878 14.1462 24.792C20.2295 22.1462 24.2712 20.3962 26.292 19.5628C32.0837 17.1462 33.2712 16.7295 34.0628 16.7295C34.2295 16.7295 34.6253 16.7712 34.8753 16.9795C35.0837 17.1462 35.1462 17.3753 35.167 17.542C35.1462 17.667 35.1878 18.042 35.167 18.3337Z" fill="#999999"/>
</svg>
