<svg width="91" height="91" viewBox="0 0 91 91" fill="none" xmlns="http://www.w3.org/2000/svg">
<path d="M36.0209 9.47917C36.0209 4.24288 40.2637 0 45.5 0C50.7363 0 54.9792 4.24288 54.9792 9.47917C54.9792 14.7155 50.7363 18.9583 45.5 18.9583C40.2637 18.9583 36.0209 14.7155 36.0209 9.47917ZM15.8416 49.03L30.6405 27.6488C32.7714 24.5776 36.2635 22.75 39.9945 22.75H51.0055C54.7327 22.75 58.2287 24.5776 60.3558 27.645L75.1585 49.03L68.9212 53.3487L56.8713 35.9412V53.0833H34.1213V35.9374L22.0713 53.345L15.834 49.0262L15.8416 49.03ZM19.5916 17.6957L28.4375 13.2708L19.5916 8.84596L15.1667 0L10.7418 8.84596L1.89587 13.2708L10.7418 17.6957L15.1667 26.5417L19.5916 17.6957ZM81.5209 17.0625L77.7292 9.47917L73.9375 17.0625L66.3542 20.8542L73.9375 24.6458L77.7292 32.2292L81.5209 24.6458L89.1042 20.8542L81.5209 17.0625ZM15.1667 91H75.8334V83.4167H15.1667V91ZM30.3334 72.0417H60.6667V64.4583H30.3334V72.0417Z" fill="#21A038"/>
</svg>
