<svg width="101" height="101" viewBox="0 0 101 101" fill="none" xmlns="http://www.w3.org/2000/svg">
<g clip-path="url(#clip0_128_289)">
<path fill-rule="evenodd" clip-rule="evenodd" d="M21.2484 58.5005L6.75 84.2373L29.026 80.8325L40.7365 100.085L49.6886 70.8859C49.6332 70.9017 49.5757 70.9172 49.5163 70.9323L42.5565 74.1445C40.6885 75.511 38.771 75.5031 38.081 75.5002H38.0809L38.0006 75.5C33.8368 75.5 30.1189 72.7318 28.8649 68.3005L25.9581 60.7427C25.7976 60.5049 25.4957 60.2031 25.2579 60.0426L21.2484 58.5005ZM51.4922 71.5126L60.0989 100.087L71.8095 80.8339L94.0855 84.2387L79.9182 58.8215L75.1183 60.6676C74.8806 60.8281 74.5787 61.1299 74.4182 61.3677L71.4174 69.1699L71.2184 69.6873L70.9109 70.1485C69.0714 72.9076 65.8264 75.5 61.7506 75.5L61.6704 75.5002H61.6703C60.9803 75.5031 59.0628 75.511 57.1948 74.1445L51.4922 71.5126ZM31.2802 60.6519L45.4962 67.2809L39.8756 69.875C39.2506 70.5 38.6256 70.5 38.0006 70.5C36.1256 70.5 34.2506 69.25 33.6256 66.75L31.2802 60.6519ZM69.2519 60.8716L66.7506 67.375C65.5006 69.25 63.6256 70.5 61.7506 70.5C61.1256 70.5 60.5006 70.5 59.8756 69.875L54.8843 67.5713L69.2519 60.8716Z" fill="#21A038"/>
<path d="M81.1256 37.375C80.5006 36.125 80.5006 34.25 81.1256 33L84.8756 25.5C86.1256 23 84.8756 19.875 81.7506 18.625L73.6256 15.5C72.3756 14.875 71.1256 13.625 70.5006 12.375L67.3756 4.25C66.7506 1.75 64.8756 0.5 63.0006 0.5C62.3756 0.5 61.1256 0.5 60.5006 1.125L52.3756 4.875H50.5006C49.8756 4.875 49.2506 4.875 48.6256 4.25L40.5006 1.125C39.8756 0.5 38.6256 0.5 38.0006 0.5C36.1256 0.5 34.2506 1.75 33.0006 3.625L29.8756 12.375C29.8756 13.625 28.6256 14.875 27.3756 15.5L18.6256 18.625C16.1256 19.25 14.8756 22.375 16.1256 25.5L19.8756 33.625C20.5006 34.875 20.5006 36.75 19.8756 38L16.1256 45.5C14.8756 48 16.1256 51.125 19.2506 52.375L27.3756 55.5C28.6256 56.125 29.8756 57.375 30.5006 58.625L33.6256 66.75C34.2506 69.25 36.1256 70.5 38.0006 70.5C38.6256 70.5 39.2506 70.5 39.8756 69.875L48.0006 66.125C48.6256 66.125 49.2506 65.5 49.8756 65.5C50.5006 65.5 51.1256 65.5 51.7506 66.125L59.8756 69.875C60.5006 70.5 61.1256 70.5 61.7506 70.5C63.6256 70.5 65.5006 69.25 66.7506 67.375L69.8756 59.25C70.5006 58 71.7506 56.75 73.0006 56.125L81.1256 53C83.6256 51.75 85.5006 48.625 84.2506 46.125L81.1256 37.375ZM50.5006 60.5C36.7506 60.5 25.5006 49.25 25.5006 35.5C25.5006 21.75 36.7506 10.5 50.5006 10.5C64.2506 10.5 75.5006 21.75 75.5006 35.5C75.5006 49.25 64.2506 60.5 50.5006 60.5Z" fill="#21A038"/>
<path d="M69.25 35.5006C69.25 40.4734 67.2746 45.2426 63.7583 48.7589C60.2419 52.2752 55.4728 54.2506 50.5 54.2506C45.5272 54.2506 40.7581 52.2752 37.2417 48.7589C33.7254 45.2426 31.75 40.4734 31.75 35.5006C31.75 30.5278 33.7254 25.7587 37.2417 22.2424C40.7581 18.7261 45.5272 16.7506 50.5 16.7506C55.4728 16.7506 60.2419 18.7261 63.7583 22.2424C67.2746 25.7587 69.25 30.5278 69.25 35.5006Z" fill="#21A038"/>
</g>
<defs>
<clipPath id="clip0_128_289">
<rect width="100" height="100" fill="white" transform="translate(0.5 0.5)"/>
</clipPath>
</defs>
</svg>
