<svg width="40" height="40" viewBox="0 0 40 40" fill="none" xmlns="http://www.w3.org/2000/svg">
<circle cx="20" cy="20" r="20" fill="white"/>
<path fill-rule="evenodd" clip-rule="evenodd" d="M14.6667 13.3333C14.6667 11.9188 15.2286 10.5623 16.2288 9.5621C17.229 8.5619 18.5855 8 20 8C21.4145 8 22.771 8.5619 23.7712 9.5621C24.7714 10.5623 25.3333 11.9188 25.3333 13.3333C25.3333 14.7478 24.7714 16.1044 23.7712 17.1046C22.771 18.1048 21.4145 18.6667 20 18.6667C18.5855 18.6667 17.229 18.1048 16.2288 17.1046C15.2286 16.1044 14.6667 14.7478 14.6667 13.3333ZM14.6667 21.3333C12.8986 21.3333 11.2029 22.0357 9.95262 23.286C8.70238 24.5362 8 26.2319 8 28C8 29.0609 8.42143 30.0783 9.17157 30.8284C9.92172 31.5786 10.9391 32 12 32H28C29.0609 32 30.0783 31.5786 30.8284 30.8284C31.5786 30.0783 32 29.0609 32 28C32 26.2319 31.2976 24.5362 30.0474 23.286C28.7971 22.0357 27.1014 21.3333 25.3333 21.3333H14.6667Z" fill="#21A038"/>
</svg>
