<svg width="51" height="50" viewBox="0 0 51 50" fill="none" xmlns="http://www.w3.org/2000/svg">
<path d="M31.9024 4.16699H19.1191C7.44408 4.16699 4.66699 6.94408 4.66699 18.5982V31.3816C4.66699 43.0545 7.42324 45.8337 19.0982 45.8337H31.8816C43.5545 45.8337 46.3337 43.0774 46.3337 31.4024V18.6191C46.3337 6.94408 43.5774 4.16699 31.9024 4.16699ZM38.3045 33.8962H35.2649C34.1149 33.8962 33.7691 32.9649 31.7066 30.9024C29.9066 29.167 29.1462 28.9503 28.6899 28.9503C28.0607 28.9503 27.8878 29.1232 27.8878 29.992V32.7253C27.8878 33.4649 27.6482 33.8982 25.717 33.8982C23.8427 33.7723 22.0252 33.2029 20.4141 32.2369C18.803 31.2708 17.4444 29.9359 16.4503 28.342C14.0903 25.4045 12.4481 21.9569 11.6545 18.2732C11.6545 17.817 11.8274 17.4045 12.6962 17.4045H15.7337C16.5149 17.4045 16.7962 17.7524 17.1024 18.5545C18.5774 22.8962 21.0941 26.6712 22.1149 26.6712C22.5066 26.6712 22.6774 26.4982 22.6774 25.5212V21.0503C22.5482 19.0107 21.4649 18.8378 21.4649 18.1003C21.4788 17.9058 21.568 17.7244 21.7134 17.5944C21.8589 17.4645 22.0492 17.3964 22.2441 17.4045H27.0191C27.6712 17.4045 27.8878 17.7295 27.8878 18.5107V24.5441C27.8878 25.1962 28.1691 25.4128 28.3649 25.4128C28.7566 25.4128 29.0587 25.1962 29.7753 24.4795C31.3146 22.6023 32.5723 20.5109 33.5087 18.2712C33.6044 18.0021 33.7855 17.7718 34.0243 17.6153C34.2632 17.4588 34.5467 17.3848 34.8316 17.4045H37.8712C38.7816 17.4045 38.9753 17.8607 38.7816 18.5107C37.6763 20.9866 36.3088 23.3369 34.7024 25.5212C34.3753 26.0212 34.2441 26.2816 34.7024 26.867C35.0045 27.3232 36.0691 28.2128 36.7857 29.0587C37.8272 30.0975 38.6921 31.2994 39.3462 32.617C39.6066 33.4628 39.1712 33.8962 38.3045 33.8962Z" fill="#999999"/>
</svg>
