<svg width="51" height="36" viewBox="0 0 51 36" fill="none" xmlns="http://www.w3.org/2000/svg">
<path d="M25.6594 0.246826H25.9375C28.5063 0.256201 41.5219 0.349952 45.0313 1.2937C46.0922 1.58173 47.0589 2.14315 47.8349 2.92185C48.6108 3.70056 49.1688 4.66928 49.4531 5.7312C49.7688 6.9187 49.9906 8.49058 50.1406 10.1125L50.1719 10.4375L50.2406 11.25L50.2656 11.575C50.4688 14.4312 50.4938 17.1062 50.4969 17.6906V17.925C50.4938 18.5312 50.4656 21.3874 50.2406 24.3624L50.2156 24.6906L50.1875 25.0156C50.0313 26.8031 49.8 28.5781 49.4531 29.8843C49.1697 30.9467 48.612 31.9159 47.8359 32.6947C47.0598 33.4735 46.0926 34.0347 45.0313 34.3218C41.4063 35.2968 27.6281 35.3656 25.7188 35.3687H25.275C24.3094 35.3687 20.3156 35.35 16.1281 35.2062L15.5969 35.1875L15.325 35.1749L14.7906 35.1531L14.2563 35.1312C10.7875 34.9781 7.48438 34.7312 5.9625 34.3187C4.90153 34.0318 3.93458 33.4711 3.15851 32.6929C2.38245 31.9146 1.82452 30.9461 1.54063 29.8843C1.19375 28.5812 0.9625 26.8031 0.80625 25.0156L0.78125 24.6875L0.75625 24.3624C0.602024 22.2449 0.516562 20.123 0.5 18L0.5 17.6156C0.50625 16.9437 0.53125 14.6218 0.7 12.0593L0.721875 11.7375L0.73125 11.575L0.75625 11.25L0.825 10.4375L0.85625 10.1125C1.00625 8.49058 1.22813 6.91558 1.54375 5.7312C1.82717 4.66885 2.38488 3.69967 3.16098 2.92083C3.93708 2.14199 4.90428 1.58086 5.96563 1.2937C7.4875 0.887452 10.7906 0.637451 14.2594 0.481201L14.7906 0.459326L15.3281 0.440577L15.5969 0.431202L16.1313 0.409327C19.1053 0.313622 22.0806 0.260491 25.0563 0.249951H25.6594V0.246826ZM20.5 10.2781V25.3343L33.4906 17.8093L20.5 10.2781Z" fill="#999999"/>
</svg>
